<svg width="541" height="351" viewBox="0 0 541 351" fill="none" xmlns="http://www.w3.org/2000/svg">
<path d="M540.69 345.396H0.135513V350.343H540.69V345.396Z" fill="#4E508D"/>
<path d="M11.8704 344.944H530.934C530.934 344.944 503.774 338.584 488.492 312.921C473.209 287.259 426.139 275.078 396.792 291.656C339.646 323.939 359.7 235.645 303.332 223.761C246.964 211.876 165.616 324.367 124.384 279.836C87.3167 239.804 66.7595 338.307 11.8704 344.944Z" fill="#F2E1D1"/>
<path d="M398.759 88.3307H278.457C273.909 88.3307 270.676 84.644 271.235 80.0956L279.957 9.14605C280.515 4.59768 284.63 0.910889 289.145 0.910889H408.587C413.103 0.910889 416.351 4.59768 415.843 9.14605L407.915 80.0956C407.406 84.644 403.308 88.3307 398.759 88.3307Z" fill="#8580A4"/>
<path d="M310.818 34.1689H294.253C292.892 34.1689 291.923 33.061 292.09 31.6932L293.678 18.639C293.845 17.2722 295.081 16.1633 296.44 16.1633H312.981C314.34 16.1633 315.309 17.2712 315.145 18.639L313.58 31.6932C313.415 33.0601 312.179 34.1689 310.818 34.1689Z" fill="#F2E1D1"/>
<path d="M388.22 25.5073C388.124 25.5073 388.028 25.4665 387.96 25.3876C387.838 25.2445 387.856 25.0293 387.999 24.9076C389.061 24.0052 389.756 22.7328 389.905 21.4175C390.048 20.1568 389.697 18.9729 388.916 18.0861C388.792 17.9439 388.806 17.7288 388.946 17.6051C389.088 17.4815 389.302 17.4941 389.427 17.6353C390.338 18.6692 390.746 20.0399 390.582 21.4944C390.413 22.98 389.632 24.414 388.44 25.4275C388.377 25.4801 388.298 25.5073 388.22 25.5073Z" fill="#F2E1D1"/>
<path d="M396.415 31.111C396.319 31.111 396.223 31.0701 396.155 30.9903C396.034 30.8472 396.051 30.632 396.194 30.5103C398.892 28.2167 400.656 24.9768 401.036 21.6249C401.401 18.3898 400.493 15.3504 398.482 13.0675C398.357 12.9263 398.372 12.7111 398.512 12.5865C398.653 12.4619 398.868 12.4755 398.993 12.6167C401.133 15.0457 402.099 18.272 401.712 21.7008C401.314 25.224 399.463 28.6236 396.635 31.0292C396.572 31.0838 396.493 31.111 396.415 31.111Z" fill="#F2E1D1"/>
<path d="M390.335 27.9655C390.238 27.9655 390.143 27.9246 390.075 27.8448C389.953 27.7017 389.97 27.4865 390.114 27.3649C391.848 25.889 392.985 23.8066 393.23 21.6512C393.465 19.5765 392.885 17.6285 391.597 16.1672C391.473 16.026 391.487 15.8109 391.627 15.6863C391.767 15.5617 391.984 15.5753 392.108 15.7165C393.525 17.3247 394.163 19.4597 393.906 21.7281C393.639 24.0879 392.448 26.2735 390.555 27.8837C390.491 27.9383 390.412 27.9655 390.335 27.9655Z" fill="#F2E1D1"/>
<path d="M393.346 29.5505C393.249 29.5505 393.154 29.5096 393.086 29.4297C392.964 29.2866 392.982 29.0715 393.125 28.9498C395.342 27.064 396.792 24.4034 397.104 21.6492C397.404 18.9944 396.662 16.5002 395.011 14.6281C394.887 14.4869 394.901 14.2717 395.042 14.1471C395.182 14.0225 395.397 14.0361 395.523 14.1773C397.301 16.1964 398.103 18.8766 397.78 21.7261C397.449 24.6497 395.914 27.4719 393.566 29.4687C393.503 29.5232 393.425 29.5505 393.346 29.5505Z" fill="#F2E1D1"/>
<path d="M288.425 68.8493H287.863L288.304 65.2238C288.341 64.922 288.385 64.6368 288.436 64.3681C288.382 64.4167 288.32 64.4674 288.254 64.5209C288.188 64.5745 287.884 64.8003 287.345 65.1995L287.088 64.8023L288.559 63.7616H289.045L288.425 68.8493Z" fill="#F2E1D1"/>
<path d="M295.118 68.8493H291.78L291.84 68.3518L293.342 67.0054C293.799 66.5926 294.104 66.2976 294.255 66.1214C294.406 65.9452 294.524 65.7738 294.609 65.6064C294.695 65.4389 294.748 65.2598 294.772 65.0671C294.805 64.7954 294.748 64.5803 294.603 64.4216C294.458 64.2629 294.24 64.1831 293.948 64.1831C293.737 64.1831 293.533 64.2181 293.337 64.2872C293.14 64.3564 292.914 64.4829 292.66 64.6669L292.402 64.2736C292.917 63.8842 293.45 63.6895 294.001 63.6895C294.478 63.6895 294.837 63.8122 295.078 64.0565C295.32 64.3019 295.415 64.6299 295.366 65.0427C295.327 65.365 295.197 65.6843 294.979 65.9997C294.76 66.3151 294.375 66.7143 293.82 67.1972L292.576 68.2865L292.573 68.3148H295.186L295.118 68.8493Z" fill="#F2E1D1"/>
<path d="M300.888 64.959C300.849 65.2842 300.725 65.549 300.519 65.7563C300.312 65.9627 300.038 66.101 299.696 66.1701L299.693 66.1983C300.094 66.2489 300.38 66.3794 300.553 66.5877C300.725 66.7961 300.789 67.0696 300.748 67.4094C300.69 67.8942 300.478 68.2671 300.11 68.528C299.742 68.7889 299.249 68.9194 298.631 68.9194C298.362 68.9194 298.119 68.8989 297.9 68.858C297.682 68.8171 297.472 68.7461 297.274 68.6438L297.34 68.0938C297.546 68.2028 297.771 68.2856 298.014 68.343C298.256 68.3995 298.488 68.4287 298.711 68.4287C299.589 68.4287 300.069 68.0841 300.153 67.3948C300.228 66.7776 299.781 66.4689 298.812 66.4689H298.312L298.372 65.9715H298.879C299.275 65.9715 299.6 65.8839 299.853 65.7086C300.106 65.5334 300.251 65.291 300.288 64.9794C300.318 64.7312 300.257 64.5365 300.103 64.3953C299.95 64.2542 299.727 64.1831 299.436 64.1831C299.214 64.1831 299.001 64.2133 298.796 64.2736C298.592 64.334 298.354 64.4459 298.082 64.6076L297.838 64.2181C298.065 64.0536 298.322 63.9241 298.605 63.8307C298.888 63.7372 299.18 63.6895 299.481 63.6895C299.974 63.6895 300.343 63.8024 300.59 64.0283C300.837 64.2542 300.935 64.5637 300.888 64.959Z" fill="#F2E1D1"/>
<path d="M306.481 67.68H305.727L305.587 68.8493H305.035L305.176 67.68H302.706L302.767 67.1758L305.591 63.7343H306.202L305.791 67.1543H306.545L306.481 67.68ZM305.238 67.1543L305.442 65.4633C305.482 65.1313 305.538 64.7565 305.612 64.3389H305.584C305.446 64.5618 305.32 64.7458 305.205 64.8918L303.346 67.1534H305.238V67.1543Z" fill="#F2E1D1"/>
<path d="M316.754 65.7417C317.289 65.7417 317.695 65.8741 317.969 66.1399C318.244 66.4057 318.355 66.7688 318.299 67.2303C318.236 67.757 318.02 68.1697 317.65 68.4696C317.28 68.7694 316.8 68.9184 316.212 68.9184C315.64 68.9184 315.214 68.8269 314.935 68.6438L315.001 68.087C315.151 68.1911 315.343 68.2729 315.576 68.3323C315.81 68.3917 316.045 68.4209 316.278 68.4209C316.685 68.4209 317.014 68.3245 317.263 68.1318C317.512 67.939 317.658 67.6606 317.701 67.2965C317.785 66.5868 317.394 66.2314 316.525 66.2314C316.305 66.2314 316.007 66.2645 315.63 66.3327L315.354 66.1409L315.83 63.7606H318.354L318.291 64.2931H316.259L315.948 65.8206C316.222 65.768 316.491 65.7417 316.754 65.7417Z" fill="#F2E1D1"/>
<path d="M320.606 66.6744C320.724 65.6745 321.007 64.9269 321.455 64.4313C321.901 63.9358 322.504 63.6885 323.263 63.6885C323.524 63.6885 323.729 63.7109 323.874 63.7547L323.814 64.2522C323.643 64.1948 323.443 64.1656 323.214 64.1656C322.67 64.1656 322.234 64.3359 321.906 64.6757C321.578 65.0155 321.358 65.5499 321.243 66.2781H321.285C321.587 65.879 322.013 65.6794 322.565 65.6794C323.021 65.6794 323.365 65.8177 323.594 66.0932C323.824 66.3696 323.912 66.7435 323.855 67.2166C323.793 67.7453 323.599 68.1619 323.275 68.4637C322.951 68.7665 322.543 68.9184 322.052 68.9184C321.527 68.9184 321.133 68.7208 320.872 68.3245C320.61 67.9302 320.521 67.3792 320.606 66.6744ZM322.102 68.4277C322.431 68.4277 322.699 68.3235 322.905 68.1162C323.112 67.9088 323.238 67.609 323.285 67.2166C323.325 66.8808 323.272 66.616 323.125 66.4232C322.979 66.2304 322.739 66.1341 322.403 66.1341C322.194 66.1341 321.998 66.1769 321.815 66.2626C321.631 66.3482 321.479 66.467 321.357 66.6179C321.236 66.7688 321.166 66.9256 321.147 67.0872C321.119 67.3257 321.138 67.5486 321.206 67.755C321.275 67.9614 321.386 68.125 321.542 68.2457C321.698 68.3674 321.884 68.4277 322.102 68.4277Z" fill="#F2E1D1"/>
<path d="M326.421 68.8493L329.065 64.2941H326.297L326.36 63.7616H329.74L329.685 64.224L327.06 68.8483H326.421V68.8493Z" fill="#F2E1D1"/>
<path d="M333.561 63.6885C334.023 63.6885 334.377 63.7966 334.623 64.0118C334.868 64.2279 334.968 64.5258 334.924 64.9064C334.894 65.1566 334.79 65.3854 334.61 65.5918C334.43 65.7982 334.16 65.9861 333.8 66.1555C334.189 66.3521 334.457 66.5595 334.606 66.7766C334.754 66.9937 334.812 67.2449 334.777 67.5301C334.728 67.9526 334.541 68.2895 334.217 68.5406C333.893 68.7928 333.475 68.9184 332.963 68.9184C332.421 68.9184 332.018 68.7996 331.755 68.5621C331.491 68.3245 331.385 67.9877 331.436 67.5515C331.505 66.9693 331.913 66.5157 332.66 66.1905C332.362 66.0094 332.156 65.8147 332.042 65.6044C331.928 65.3942 331.886 65.1595 331.917 64.8996C331.961 64.5306 332.131 64.2366 332.429 64.0176C332.727 63.7985 333.105 63.6885 333.561 63.6885ZM332.005 67.5652C331.972 67.8436 332.043 68.0607 332.218 68.2155C332.393 68.3713 332.655 68.4482 333.006 68.4482C333.35 68.4482 333.63 68.3674 333.84 68.2048C334.051 68.0422 334.174 67.8202 334.207 67.5369C334.233 67.312 334.167 67.1125 334.006 66.9363C333.847 66.761 333.552 66.5916 333.122 66.4261C332.759 66.5741 332.49 66.7386 332.313 66.9187C332.137 67.0988 332.035 67.314 332.005 67.5652ZM333.498 64.1587C333.209 64.1587 332.974 64.2279 332.792 64.3671C332.612 64.5063 332.507 64.6923 332.48 64.924C332.455 65.1372 332.501 65.3212 332.62 65.474C332.739 65.6269 332.974 65.7807 333.323 65.9335C333.671 65.7943 333.923 65.6444 334.079 65.4847C334.236 65.3241 334.327 65.1381 334.352 64.924C334.379 64.6893 334.317 64.5034 334.166 64.3651C334.015 64.2279 333.792 64.1587 333.498 64.1587Z" fill="#F2E1D1"/>
<path d="M346.983 65.9335C346.75 67.9234 345.865 68.9194 344.327 68.9194C344.058 68.9194 343.848 68.896 343.696 68.8493L343.754 68.3518C343.933 68.4121 344.14 68.4423 344.377 68.4423C344.932 68.4423 345.371 68.27 345.697 67.9254C346.022 67.5807 346.237 67.0521 346.346 66.3405H346.304C346.154 66.5332 345.968 66.6792 345.745 66.7805C345.522 66.8817 345.28 66.9314 345.015 66.9314C344.566 66.9314 344.225 66.797 343.993 66.5274C343.76 66.2587 343.673 65.8829 343.729 65.4C343.791 64.8714 343.988 64.4537 344.319 64.1471C344.65 63.8414 345.056 63.6876 345.538 63.6876C345.883 63.6876 346.175 63.7761 346.411 63.9533C346.649 64.1305 346.817 64.3895 346.916 64.7293C347.015 65.071 347.037 65.4721 346.983 65.9335ZM345.479 64.1831C345.148 64.1831 344.879 64.2892 344.673 64.5034C344.468 64.7166 344.342 65.0135 344.299 65.3942C344.26 65.7281 344.312 65.991 344.456 66.1827C344.6 66.3745 344.843 66.4699 345.184 66.4699C345.395 66.4699 345.593 66.4271 345.78 66.3414C345.967 66.2558 346.121 66.138 346.24 65.99C346.359 65.842 346.428 65.6862 346.447 65.5237C346.475 65.2803 346.454 65.0554 346.384 64.849C346.314 64.6426 346.2 64.48 346.043 64.3622C345.887 64.2415 345.699 64.1831 345.479 64.1831Z" fill="#F2E1D1"/>
<path d="M351.078 63.6885C351.54 63.6885 351.895 63.7966 352.141 64.0118C352.386 64.2279 352.487 64.5258 352.442 64.9064C352.413 65.1566 352.309 65.3854 352.13 65.5918C351.951 65.7982 351.681 65.9861 351.321 66.1555C351.71 66.3521 351.979 66.5595 352.127 66.7766C352.275 66.9937 352.333 67.2449 352.3 67.5301C352.251 67.9526 352.065 68.2895 351.741 68.5406C351.417 68.7928 351 68.9184 350.489 68.9184C349.946 68.9184 349.543 68.7996 349.279 68.5621C349.016 68.3245 348.908 67.9877 348.959 67.5515C349.027 66.9693 349.434 66.5157 350.181 66.1905C349.882 66.0094 349.676 65.8147 349.562 65.6044C349.447 65.3942 349.405 65.1595 349.435 64.8996C349.478 64.5306 349.649 64.2366 349.946 64.0176C350.243 63.7985 350.622 63.6885 351.078 63.6885ZM349.528 67.5652C349.495 67.8436 349.567 68.0607 349.742 68.2155C349.917 68.3713 350.179 68.4482 350.529 68.4482C350.874 68.4482 351.152 68.3674 351.364 68.2048C351.575 68.0422 351.697 67.8202 351.73 67.5369C351.756 67.312 351.689 67.1125 351.528 66.9363C351.368 66.761 351.073 66.5916 350.643 66.4261C350.281 66.5741 350.012 66.7386 349.835 66.9187C349.66 67.0988 349.557 67.314 349.528 67.5652ZM351.016 64.1587C350.727 64.1587 350.491 64.2279 350.311 64.3671C350.131 64.5063 350.027 64.6923 350 64.924C349.974 65.1372 350.022 65.3212 350.141 65.474C350.26 65.6269 350.494 65.7807 350.845 65.9335C351.192 65.7943 351.444 65.6444 351.6 65.4847C351.757 65.3241 351.848 65.1381 351.872 64.924C351.899 64.6893 351.837 64.5034 351.685 64.3651C351.533 64.2279 351.31 64.1587 351.016 64.1587Z" fill="#F2E1D1"/>
<path d="M357.963 65.9335C357.733 67.9234 356.849 68.9194 355.31 68.9194C355.042 68.9194 354.831 68.896 354.68 68.8493L354.737 68.3518C354.915 68.4121 355.122 68.4423 355.359 68.4423C355.915 68.4423 356.354 68.27 356.678 67.9254C357.002 67.5807 357.219 67.0521 357.326 66.3405H357.284C357.134 66.5332 356.948 66.6792 356.726 66.7805C356.503 66.8817 356.261 66.9314 355.996 66.9314C355.547 66.9314 355.205 66.797 354.973 66.5274C354.74 66.2587 354.651 65.8829 354.708 65.4C354.769 64.8714 354.966 64.4537 355.296 64.1471C355.627 63.8414 356.033 63.6876 356.515 63.6876C356.859 63.6876 357.151 63.7761 357.388 63.9533C357.625 64.1305 357.794 64.3895 357.893 64.7293C357.993 65.071 358.017 65.4721 357.963 65.9335ZM356.457 64.1831C356.126 64.1831 355.858 64.2892 355.652 64.5034C355.447 64.7166 355.322 65.0135 355.277 65.3942C355.238 65.7281 355.291 65.991 355.436 66.1827C355.58 66.3745 355.822 66.4699 356.163 66.4699C356.374 66.4699 356.573 66.4271 356.76 66.3414C356.947 66.2558 357.101 66.138 357.219 65.99C357.338 65.842 357.407 65.6862 357.427 65.5237C357.455 65.2803 357.434 65.0554 357.363 64.849C357.292 64.6426 357.178 64.48 357.022 64.3622C356.865 64.2415 356.677 64.1831 356.457 64.1831Z" fill="#F2E1D1"/>
<path d="M363.438 66.2986C363.337 67.1777 363.123 67.8348 362.796 68.2681C362.469 68.7013 362.021 68.9184 361.451 68.9184C360.904 68.9184 360.514 68.6964 360.28 68.2515C360.047 67.8076 359.98 67.1553 360.08 66.2976C360.182 65.4117 360.396 64.7536 360.721 64.3243C361.047 63.8949 361.491 63.6807 362.056 63.6807C362.607 63.6807 363 63.9047 363.234 64.3525C363.468 64.8013 363.537 65.4497 363.438 66.2986ZM360.663 66.2986C360.577 67.0385 360.602 67.5778 360.737 67.9147C360.872 68.2515 361.129 68.4209 361.509 68.4209C361.893 68.4209 362.191 68.2496 362.404 67.9079C362.616 67.5652 362.764 67.0297 362.849 66.2986C362.933 65.5675 362.909 65.032 362.776 64.6932C362.642 64.3535 362.384 64.1831 362 64.1831C361.62 64.1831 361.324 64.3505 361.112 64.6864C360.898 65.0213 360.749 65.5587 360.663 66.2986Z" fill="#F2E1D1"/>
<path d="M375.47 66.2986C375.369 67.1777 375.155 67.8348 374.829 68.2681C374.502 68.7013 374.054 68.9184 373.484 68.9184C372.938 68.9184 372.548 68.6964 372.313 68.2515C372.08 67.8076 372.012 67.1553 372.111 66.2976C372.212 65.4117 372.426 64.7536 372.75 64.3243C373.075 63.8949 373.52 63.6807 374.085 63.6807C374.636 63.6807 375.029 63.9047 375.264 64.3525C375.498 64.8013 375.567 65.4497 375.47 66.2986ZM372.694 66.2986C372.609 67.0385 372.635 67.5778 372.769 67.9147C372.904 68.2525 373.161 68.4209 373.541 68.4209C373.925 68.4209 374.223 68.2496 374.436 67.9079C374.648 67.5652 374.795 67.0297 374.879 66.2986C374.962 65.5675 374.938 65.032 374.804 64.6932C374.67 64.3535 374.411 64.1831 374.027 64.1831C373.647 64.1831 373.351 64.3505 373.139 64.6864C372.928 65.0213 372.779 65.5587 372.694 66.2986Z" fill="#F2E1D1"/>
<path d="M381.014 67.68H380.26L380.127 68.8493H379.575L379.708 67.68H377.238L377.296 67.1758L380.1 63.7343H380.711L380.321 67.1543H381.074L381.014 67.68ZM379.768 67.1543L379.96 65.4633C379.998 65.1313 380.053 64.7565 380.124 64.3389H380.096C379.959 64.5618 379.834 64.7458 379.72 64.8918L377.874 67.1534H379.768V67.1543Z" fill="#F2E1D1"/>
<path d="M384.735 65.7417C385.269 65.7417 385.675 65.8741 385.952 66.1399C386.228 66.4057 386.34 66.7688 386.287 67.2303C386.228 67.757 386.013 68.1697 385.645 68.4696C385.277 68.7685 384.797 68.9184 384.209 68.9184C383.636 68.9184 383.211 68.8269 382.931 68.6438L382.994 68.087C383.145 68.1911 383.337 68.2729 383.57 68.3323C383.804 68.3917 384.039 68.4209 384.272 68.4209C384.679 68.4209 385.007 68.3245 385.255 68.1318C385.503 67.939 385.648 67.6606 385.689 67.2965C385.77 66.5868 385.375 66.2314 384.507 66.2314C384.287 66.2314 383.989 66.2645 383.613 66.3327L383.337 66.1409L383.799 63.7606H386.323L386.263 64.2931H384.231L383.929 65.8206C384.203 65.768 384.471 65.7417 384.735 65.7417Z" fill="#F2E1D1"/>
<path d="M388.59 66.6744C388.704 65.6745 388.981 64.9269 389.426 64.4313C389.87 63.9358 390.472 63.6885 391.231 63.6885C391.492 63.6885 391.696 63.7109 391.841 63.7547L391.785 64.2522C391.614 64.1948 391.413 64.1656 391.183 64.1656C390.639 64.1656 390.205 64.3359 389.879 64.6757C389.553 65.0155 389.335 65.5499 389.224 66.2781H389.266C389.566 65.879 389.992 65.6794 390.543 65.6794C390.998 65.6794 391.343 65.8177 391.575 66.0932C391.806 66.3696 391.895 66.7435 391.841 67.2166C391.782 67.7453 391.59 68.1619 391.268 68.4637C390.946 68.7665 390.538 68.9184 390.047 68.9184C389.521 68.9184 389.127 68.7208 388.863 68.3245C388.601 67.9302 388.51 67.3792 388.59 66.6744ZM390.097 68.4277C390.426 68.4277 390.694 68.3235 390.898 68.1162C391.103 67.9088 391.228 67.609 391.273 67.2166C391.311 66.8808 391.256 66.616 391.109 66.4232C390.962 66.2304 390.721 66.1341 390.385 66.1341C390.177 66.1341 389.981 66.1769 389.797 66.2626C389.614 66.3482 389.462 66.467 389.341 66.6179C389.221 66.7688 389.151 66.9256 389.133 67.0872C389.106 67.3257 389.126 67.5486 389.196 67.755C389.265 67.9614 389.378 68.125 389.535 68.2457C389.692 68.3674 389.879 68.4277 390.097 68.4277Z" fill="#F2E1D1"/>
<path d="M447.356 222.312H264.254L277.57 136.446H458.28C460.585 136.446 462.358 138.484 462.039 140.767L451.115 219.041C450.853 220.916 449.249 222.312 447.356 222.312Z" fill="#8580A4"/>
<path d="M280.95 140.478L268.911 218.281H447.189L458.073 140.478H280.95ZM445.111 215.863H271.703L282.978 142.896H455.334L445.111 215.863Z" fill="#F2E1D1"/>
<path d="M304.592 144.984C303.023 155.262 293.463 163.596 283.236 163.596C282.05 163.596 280.912 163.483 279.83 163.266C279.028 163.113 278.258 162.903 277.521 162.637L280.95 140.478H304.727C304.807 141.268 304.828 142.074 304.791 142.897C304.766 143.581 304.7 144.274 304.592 144.984Z" fill="#BBB1BA"/>
<path d="M456.611 150.932L454.973 162.636C454.159 162.902 453.327 163.112 452.479 163.265C451.334 163.482 450.163 163.595 448.984 163.595C438.757 163.595 431.645 155.261 433.104 144.983C433.204 144.273 433.343 143.58 433.52 142.895C433.725 142.072 433.984 141.266 434.296 140.476H447.517C453.094 140.477 457.384 145.408 456.611 150.932Z" fill="#F2E1D1"/>
<path d="M294.088 213.774C293.98 214.484 293.834 215.177 293.648 215.862C293.434 216.685 293.165 217.499 292.844 218.281H268.912L272.34 196.13C273.161 195.864 273.999 195.646 274.849 195.501C276.001 195.283 277.176 195.171 278.367 195.171C288.621 195.17 295.656 203.505 294.088 213.774Z" fill="#BBB1BA"/>
<path d="M450.288 196.13L448.296 210.371C447.661 214.906 443.782 218.281 439.202 218.281H423.257C423.166 217.499 423.137 216.685 423.165 215.862C423.182 215.177 423.24 214.484 423.34 213.774C424.798 203.504 434.296 195.17 444.551 195.17C445.733 195.17 446.876 195.283 447.963 195.5C448.771 195.646 449.545 195.864 450.288 196.13Z" fill="#F2E1D1"/>
<path d="M395.085 179.379C392.575 196.729 376.488 210.795 359.153 210.795C341.819 210.795 329.876 196.729 332.477 179.379C335.078 162.029 351.166 147.963 368.409 147.963C385.653 147.963 397.596 162.029 395.085 179.379Z" fill="#F2E1D1"/>
<path d="M373.923 183.615C373.56 182.407 372.843 181.316 371.79 180.337C370.8 179.423 369.2 178.43 367.011 177.35C366.861 177.274 366.711 177.207 366.562 177.13C364.491 176.154 363.046 175.364 362.23 174.754C362.197 174.735 362.164 174.716 362.134 174.687C361.345 174.078 360.814 173.438 360.531 172.768C360.26 172.089 360.199 171.287 360.358 170.354C360.591 168.996 361.271 167.921 362.383 167.112C362.764 166.84 363.18 166.614 363.651 166.452C364.556 166.111 365.629 165.954 366.877 165.984C367.541 166 368.225 166.062 368.918 166.178C370.172 166.38 371.482 166.739 372.844 167.262C374.072 167.729 375.599 167.128 376.32 165.855L376.334 165.827C377.084 164.491 376.674 162.927 375.395 162.441C373.577 161.743 371.707 161.29 369.787 161.08L370.155 158.926C370.279 158.202 370.102 157.543 369.709 157.052C369.314 156.57 368.718 156.264 367.999 156.248C366.573 156.214 365.206 157.354 364.959 158.802L364.556 161.156C362.427 161.487 360.565 162.206 358.948 163.322C356.544 164.992 355.088 167.321 354.574 170.317C354.164 172.707 354.477 174.769 355.515 176.503C356.504 178.154 358.388 179.645 361.164 180.983C361.313 181.059 361.463 181.136 361.614 181.203C363.488 182.066 364.935 182.847 365.952 183.553C366.526 183.948 366.978 184.314 367.279 184.666C368.127 185.623 368.437 186.776 368.208 188.116C367.955 189.6 367.213 190.773 365.964 191.635C365.525 191.934 365.02 192.185 364.448 192.362C363.394 192.718 362.12 192.87 360.627 192.834C360.141 192.823 359.649 192.792 359.153 192.735C358.017 192.617 356.845 192.389 355.629 192.051C355.025 191.881 354.441 191.704 353.871 191.5C353.624 191.412 353.379 191.369 353.127 191.363C351.75 191.331 350.359 192.434 350.105 193.909C349.917 195.004 350.412 196.017 351.367 196.403C353.273 197.148 355.573 197.594 358.296 197.741L357.938 199.832C357.69 201.281 358.66 202.476 360.092 202.51C361.533 202.544 362.904 201.405 363.151 199.956L363.569 197.511C365.775 197.136 367.7 196.401 369.345 195.286C371.95 193.521 373.517 191.049 374.059 187.862C374.334 186.242 374.287 184.823 373.923 183.615Z" fill="#8580A4"/>
<path d="M68.9072 223.693C81.0336 211.957 96.0612 206.638 104.159 213.313C104.528 213.608 106.095 215.294 106.42 215.621C113.29 222.564 110.038 236.411 98.5086 247.563C86.3365 259.348 69.6354 263.785 61.3847 257.277C60.2749 256.376 57.7388 254.084 57.0515 252.898C52.6929 245.369 58.3463 233.924 68.9072 223.693Z" fill="#F29F04"/>
<path d="M66.3145 221.03C78.4409 209.294 94.6903 205.349 102.788 212.024C110.985 218.59 107.988 233.222 95.916 244.9C83.7438 256.686 67.0427 261.122 58.792 254.614C50.6406 247.997 54.0888 232.874 66.3145 221.03Z" fill="#F29F04"/>
<path d="M70.5213 254.422C67.1275 254.422 64.1105 253.565 61.8266 251.758C57.0641 247.912 56.5588 240.625 60.5026 232.741C62.29 229.164 64.9332 225.628 68.1468 222.515C72.3827 218.415 77.2874 215.305 82.3293 213.524C89.4254 211.024 95.8119 211.483 99.8491 214.786C101.562 216.172 102.755 217.977 103.397 220.15C105.405 226.872 101.713 236.044 93.9943 243.513C86.793 250.484 77.7936 254.422 70.5213 254.422ZM68.8234 223.214C65.6877 226.251 63.1127 229.695 61.3739 233.176C57.6462 240.629 58.0532 247.459 62.436 250.998C69.2381 256.382 83.0945 252.713 93.3176 242.813C100.78 235.594 104.369 226.807 102.464 220.427C101.88 218.445 100.793 216.801 99.2368 215.54C95.4643 212.456 89.4206 212.057 82.6555 214.442C77.742 216.177 72.96 219.21 68.8234 223.214Z" fill="#D97803"/>
<path d="M76.9924 227.577C76.6176 228.715 76.75 229.819 77.3906 230.89L77.2494 231.022C76.3061 230.561 75.2391 230.53 74.0465 230.93C72.8539 231.33 71.6545 232.096 70.4454 233.229C68.6502 234.912 67.7341 236.501 67.698 237.995C67.6796 238.789 67.9288 239.598 68.4292 240.422L66.1229 242.585C65.3372 243.322 65.0997 244.274 65.5933 244.71C66.0878 245.146 67.1256 244.901 67.9112 244.164L69.9528 242.25C70.0813 242.373 70.2059 242.495 70.347 242.618L71.2291 243.392L69.2002 245.294C68.4146 246.031 68.179 246.98 68.6755 247.414C69.172 247.847 70.2117 247.6 70.9974 246.863L73.0262 244.96L74.248 246.021L75.4825 247.088C75.9819 247.518 77.0216 247.271 77.8053 246.536C78.589 245.802 78.8188 244.858 78.3193 244.428L77.0849 243.36L92.0511 229.344L93.2836 230.414C93.7821 230.845 94.814 230.607 95.5889 229.881C96.3629 229.157 96.5859 228.22 96.0884 227.789L94.8559 226.719L94.8695 226.706L93.6506 225.643L95.6493 223.772C96.4223 223.05 96.6462 222.112 96.1507 221.678C95.6561 221.243 94.629 221.477 93.856 222.199L91.8564 224.069L90.5713 222.935L92.571 221.065C93.344 220.343 93.5708 219.402 93.0772 218.965C92.5846 218.528 91.5595 218.759 90.7865 219.482L88.6067 221.521C87.5485 221.001 86.4036 220.815 85.1663 220.979C83.3087 221.226 81.4571 222.213 79.6093 223.943C78.2415 225.228 77.3682 226.439 76.9924 227.577ZM73.0798 239.861C72.113 239.009 71.6263 238.183 71.6175 237.382C71.6097 236.582 72.0916 235.725 73.0642 234.814C74.14 233.806 75.1067 233.275 75.9644 233.22C76.823 233.164 77.6982 233.532 78.5919 234.322L80.6529 236.131L74.9353 241.489L74.1584 240.809L73.0798 239.861ZM84.8031 224.429C85.7961 224.329 86.7385 224.676 87.6312 225.466L89.1295 226.787L89.9054 227.468L83.3915 233.566L81.2234 231.661C80.2762 230.824 79.8303 229.956 79.8838 229.061C79.9374 228.164 80.5001 227.215 81.57 226.213C82.7324 225.124 83.8101 224.53 84.8031 224.429Z" fill="#D97803"/>
<path d="M68.6472 257.955C64.7171 257.955 61.224 256.965 58.5809 254.88C58.4338 254.764 58.4076 254.549 58.5244 254.402C58.6402 254.254 58.8554 254.23 59.0024 254.345C67.1071 260.737 83.5589 256.391 95.6785 244.655C104.018 236.588 108.262 226.909 106.758 219.394C106.721 219.21 106.841 219.03 107.025 218.994C107.208 218.954 107.388 219.077 107.425 219.261C108.975 227 104.655 236.918 96.1517 245.144C87.7033 253.325 77.1492 257.954 68.6472 257.955Z" fill="#D97803"/>
<path d="M105.301 238.97C105.217 238.97 105.133 238.94 105.067 238.878L102.653 236.601C102.516 236.471 102.51 236.256 102.638 236.119C102.768 235.981 102.983 235.976 103.12 236.104L105.535 238.381C105.672 238.511 105.678 238.726 105.549 238.863C105.482 238.935 105.392 238.97 105.301 238.97Z" fill="#D97803"/>
<path d="M102.836 242.627C102.755 242.627 102.674 242.6 102.61 242.541L100.223 240.416C100.082 240.29 100.07 240.075 100.195 239.935C100.319 239.793 100.535 239.78 100.676 239.907L103.063 242.032C103.204 242.158 103.216 242.373 103.091 242.513C103.024 242.589 102.93 242.627 102.836 242.627Z" fill="#D97803"/>
<path d="M97.2449 248.646C97.1583 248.646 97.0706 248.614 97.0054 248.547L94.6913 246.251C94.557 246.119 94.556 245.904 94.6894 245.77C94.8218 245.636 95.0379 245.635 95.1703 245.768L97.4844 248.064C97.6187 248.196 97.6197 248.413 97.4863 248.545C97.4201 248.613 97.3325 248.646 97.2449 248.646Z" fill="#D97803"/>
<path d="M86.903 256.18C86.8037 256.18 86.7054 256.137 86.6372 256.054L84.4604 253.365C84.3426 253.219 84.365 253.004 84.511 252.885C84.658 252.767 84.8712 252.789 84.991 252.936L87.1678 255.625C87.2856 255.771 87.2632 255.986 87.1172 256.105C87.0539 256.154 86.978 256.18 86.903 256.18Z" fill="#D97803"/>
<path d="M83.7001 257.561C83.591 257.561 83.482 257.508 83.4168 257.41L81.6732 254.799C81.569 254.642 81.6109 254.431 81.7676 254.327C81.9214 254.223 82.1356 254.263 82.2398 254.421L83.9834 257.032C84.0875 257.189 84.0457 257.4 83.8889 257.504C83.8315 257.542 83.7653 257.561 83.7001 257.561Z" fill="#D97803"/>
<path d="M108.618 232.272C108.536 232.272 108.454 232.244 108.389 232.184L105.802 229.835C105.663 229.708 105.653 229.494 105.78 229.354C105.907 229.214 106.123 229.205 106.261 229.331L108.848 231.68C108.987 231.807 108.997 232.021 108.87 232.161C108.803 232.235 108.709 232.272 108.618 232.272Z" fill="#D97803"/>
<path d="M421.081 328.136C439.914 321.733 449.537 299.941 442.575 279.462C435.612 258.983 414.701 247.573 395.867 253.976C377.034 260.379 367.411 282.171 374.373 302.65C381.336 323.128 402.247 334.539 421.081 328.136Z" fill="#F29F04"/>
<path d="M424.634 325.849C443.467 319.446 453.091 297.654 446.128 277.175C439.166 256.696 418.254 245.286 399.42 251.689C380.587 258.092 370.964 279.884 377.926 300.363C384.889 320.842 405.8 332.252 424.634 325.849Z" fill="#F29F04"/>
<path d="M413.556 322.281C402.063 322.281 391.158 315.593 385.118 304.573C376.191 288.287 380.987 267.935 395.81 259.205C405.603 253.437 417.845 253.978 427.754 260.613C432.321 263.671 436.183 267.928 438.922 272.924C442.543 279.53 444.027 286.919 443.213 294.293C442.073 304.608 436.612 313.355 428.229 318.291C424.721 320.357 420.909 321.635 416.899 322.091C415.783 322.218 414.667 322.281 413.556 322.281ZM410.439 256.204C405.524 256.204 400.664 257.477 396.304 260.043C381.93 268.508 377.295 288.274 385.972 304.105C392.404 315.841 404.498 322.518 416.789 321.124C420.663 320.684 424.346 319.449 427.735 317.453C435.85 312.674 441.139 304.193 442.244 294.186C443.036 287.012 441.591 279.822 438.067 273.393C435.404 268.534 431.65 264.394 427.212 261.422C422.034 257.954 416.199 256.204 410.439 256.204Z" fill="#D97803"/>
<path d="M424.28 284.234C422.671 283.516 420.735 283.511 418.471 284.213L418.358 283.994C419.839 282.767 420.699 281.291 420.936 279.567C421.172 277.844 420.809 276.048 419.844 274.18C418.413 271.408 416.471 269.871 414.021 269.57C412.716 269.411 411.183 269.618 409.435 270.169L407.601 266.618C406.977 265.409 405.578 264.92 404.477 265.526C403.376 266.133 402.989 267.604 403.613 268.813L405.236 271.957C404.934 272.113 404.635 272.263 404.323 272.436L402.362 273.515L400.748 270.39C400.124 269.181 398.725 268.692 397.624 269.299C396.523 269.905 396.137 271.376 396.761 272.586L398.374 275.711L395.67 277.199L392.944 278.7C391.842 279.306 391.456 280.778 392.08 281.987C392.704 283.196 394.103 283.685 395.204 283.078L397.931 281.577L409.923 304.804L407.196 306.305C406.095 306.912 405.709 308.383 406.333 309.592C406.957 310.801 408.356 311.29 409.457 310.683L412.184 309.182L412.195 309.203L414.899 307.715L416.512 310.84C417.136 312.049 418.535 312.538 419.636 311.931C420.737 311.325 421.124 309.854 420.5 308.644L418.886 305.519L421.752 303.942L423.365 307.067C423.989 308.276 425.388 308.765 426.489 308.159C427.59 307.552 427.976 306.081 427.352 304.872L425.594 301.467C427.258 300.086 428.43 298.524 429.087 296.77C430.074 294.137 429.826 291.383 428.341 288.508C427.241 286.376 425.887 284.952 424.28 284.234ZM406.824 276.681C408.978 275.496 410.722 274.967 412.059 275.093C413.396 275.22 414.452 276.035 415.228 277.537C416.086 279.201 416.237 280.632 415.678 281.829C415.118 283.028 413.842 284.176 411.849 285.273L407.264 287.797L402.698 278.953L404.423 278.004L406.824 276.681ZM423.618 295.647C423.035 297.046 421.746 298.294 419.753 299.391L416.415 301.229L414.689 302.178L409.457 292.043L414.282 289.387C416.394 288.223 418.177 287.758 419.627 287.99C421.079 288.222 422.233 289.17 423.092 290.834C424.026 292.644 424.202 294.248 423.618 295.647Z" fill="#D97803"/>
<path d="M413.856 327.947C400.289 327.947 387.643 320.121 380.587 307.246C370.148 288.201 375.75 264.407 393.075 254.204C394.13 253.583 395.226 253.014 396.333 252.514C396.502 252.438 396.707 252.512 396.785 252.684C396.862 252.857 396.786 253.058 396.615 253.136C395.53 253.626 394.455 254.183 393.421 254.792C376.41 264.81 370.921 288.194 381.185 306.92C388.368 320.027 401.434 327.812 415.292 327.236C415.464 327.236 415.639 327.374 415.646 327.562C415.654 327.75 415.508 327.91 415.32 327.917C414.832 327.937 414.342 327.947 413.856 327.947Z" fill="#D97803"/>
<path d="M401.973 328.891C401.816 328.891 401.675 328.784 401.64 328.625C401.599 328.442 401.715 328.259 401.899 328.218C402.734 328.033 407.158 326.715 407.203 326.703C407.383 326.645 407.573 326.751 407.627 326.931C407.681 327.111 407.578 327.301 407.398 327.355C407.215 327.41 402.906 328.693 402.048 328.883C402.023 328.889 401.997 328.891 401.973 328.891Z" fill="#D97803"/>
<path d="M392.745 325.276C392.588 325.276 392.446 325.168 392.412 325.009C392.372 324.825 392.488 324.644 392.672 324.604L397.904 323.462C398.083 323.417 398.269 323.538 398.309 323.723C398.349 323.907 398.233 324.088 398.048 324.128L392.816 325.27C392.794 325.274 392.769 325.276 392.745 325.276Z" fill="#D97803"/>
<path d="M379.904 313.386C379.746 313.386 379.605 313.277 379.571 313.117C379.531 312.934 379.648 312.752 379.833 312.713L383.828 311.856C384.012 311.813 384.193 311.934 384.232 312.118C384.272 312.302 384.155 312.483 383.971 312.522L379.977 313.379C379.952 313.384 379.927 313.386 379.904 313.386Z" fill="#D97803"/>
<path d="M373.245 299.307C373.082 299.307 372.939 299.192 372.909 299.027C372.876 298.842 373 298.665 373.185 298.632L376.894 297.965C377.077 297.932 377.256 298.055 377.289 298.24C377.322 298.424 377.199 298.602 377.014 298.636L373.303 299.302C373.285 299.306 373.265 299.307 373.245 299.307Z" fill="#D97803"/>
<path d="M373.149 279.997C373.003 279.997 372.868 279.903 372.823 279.756C372.769 279.576 372.871 279.385 373.05 279.33L376.19 278.378C376.373 278.326 376.561 278.425 376.614 278.605C376.669 278.785 376.567 278.976 376.387 279.029L373.248 279.982C373.216 279.992 373.182 279.997 373.149 279.997Z" fill="#D97803"/>
<path d="M320.017 344.944H191.373C184.258 344.944 178.945 339.176 179.507 332.06L201.135 57.9807C201.697 50.8651 208.232 45.0969 215.733 45.0969H351.344C358.845 45.0969 364.31 50.8651 363.549 57.9807L334.277 332.06C333.516 339.176 327.131 344.944 320.017 344.944Z" fill="#4E508D"/>
<path d="M192.727 328.282C188.752 328.282 185.776 325.058 186.093 321.095L207.126 57.9797C207.444 54.0164 211.096 50.793 215.27 50.793H350.748C354.922 50.793 357.977 54.0164 357.557 57.9797L329.727 321.095C329.307 325.058 325.732 328.282 321.758 328.282H192.727Z" fill="#F2E1D1"/>
<path d="M331.296 96.2456C330.289 94.796 328.505 93.7952 325.944 93.2422L325.983 92.994C328.167 92.6883 329.941 91.8471 331.305 90.4715C332.673 89.0959 333.533 87.3494 333.885 85.23C334.406 82.0855 333.617 79.7519 331.514 78.2303C330.391 77.4203 328.805 76.8108 326.785 76.3912L327.415 72.3608C327.629 70.9891 326.622 69.8442 325.167 69.8043C323.711 69.7634 322.363 70.843 322.157 72.2157L321.619 75.7828C321.229 75.7633 320.845 75.7399 320.435 75.7283L317.858 75.6572L318.378 72.1106C318.58 70.7379 317.562 69.593 316.107 69.5531C314.652 69.5122 313.315 70.5929 313.121 71.9655L312.622 75.5131L309.071 75.4148L305.49 75.3155C304.044 75.2756 302.727 76.3562 302.548 77.7289C302.368 79.1016 303.389 80.2474 304.827 80.2873L308.389 80.3857L304.762 106.757L301.301 106.662C299.904 106.624 298.626 107.706 298.446 109.08C298.266 110.452 299.246 111.596 300.635 111.634L304.077 111.728L304.074 111.752L307.485 111.846L306.981 115.392C306.786 116.765 307.747 117.908 309.127 117.946C310.507 117.984 311.79 116.901 311.993 115.529L312.516 111.983L316.132 112.081L315.595 115.627C315.387 116.999 316.337 118.141 317.717 118.179C319.098 118.217 320.391 117.136 320.608 115.764L321.215 111.9C323.618 111.554 325.696 110.796 327.436 109.608C330.058 107.826 331.645 105.305 332.191 102.044C332.597 99.6286 332.299 97.6952 331.296 96.2456ZM320.004 80.706C322.818 80.7839 324.811 81.2219 325.985 82.0193C327.158 82.8166 327.606 84.0686 327.336 85.7732C327.036 87.6609 326.23 88.982 324.918 89.7355C323.609 90.49 321.667 90.8308 319.09 90.7597L313.165 90.5961L314.612 80.557L316.865 80.6193L320.004 80.706ZM323.193 105.826C321.752 106.743 319.766 107.167 317.235 107.098L312.997 106.982L310.808 106.921L312.471 95.4161L318.672 95.5865C321.388 95.6615 323.342 96.1726 324.53 97.1198C325.716 98.0671 326.157 99.4836 325.854 101.371C325.526 103.425 324.638 104.91 323.193 105.826Z" fill="#BBB1BA"/>
<path d="M220.142 76.5139L220.061 77.6987C219.925 79.6906 221.497 81.3845 223.492 81.4001L288.004 81.8995C289.667 81.9122 291.105 80.743 291.431 79.1123L291.694 77.798C292.121 75.6611 290.493 73.6634 288.314 73.6517L223.62 73.2818C221.79 73.2711 220.266 74.6866 220.142 76.5139Z" fill="#E5D1C1"/>
<path d="M220.673 97.5424L220.61 98.7272C220.503 100.719 221.75 102.413 223.335 102.429L274.554 102.928C275.875 102.941 277.016 101.771 277.275 100.141L277.483 98.8265C277.823 96.6895 276.53 94.6918 274.8 94.6792L223.435 94.3092C221.981 94.2995 220.771 95.715 220.673 97.5424Z" fill="#E5D1C1"/>
<path d="M229.332 224.949L229.267 226.134C229.16 228.126 230.407 229.82 231.992 229.835L283.212 230.335C284.532 230.348 285.674 229.178 285.932 227.548L286.141 226.233C286.48 224.096 285.188 222.099 283.458 222.087L232.093 221.717C230.64 221.707 229.43 223.123 229.332 224.949Z" fill="#E5D1C1"/>
<path d="M193.44 308.651L193.394 309.836C193.317 311.828 194.221 313.522 195.37 313.537L232.494 314.037C233.451 314.05 234.278 312.88 234.465 311.25L234.616 309.935C234.862 307.798 233.926 305.801 232.671 305.789L195.442 305.419C194.388 305.408 193.512 306.824 193.44 308.651Z" fill="#E5D1C1"/>
<path d="M244.313 136.575L244.25 137.76C244.143 139.752 245.39 141.446 246.975 141.462L298.195 141.961C299.515 141.974 300.657 140.804 300.915 139.174L301.124 137.859C301.464 135.723 300.171 133.725 298.441 133.713L247.077 133.343C245.621 133.333 244.412 134.748 244.313 136.575Z" fill="#E5D1C1"/>
<path d="M256.28 199.911H248.108L251.262 180.048H259.41L256.28 199.911Z" fill="#BBB1BA"/>
<path d="M269.106 199.911H260.934L264.706 175.86H272.85L269.106 199.911Z" fill="#BBB1BA"/>
<path d="M281.931 199.911H273.759L278.229 171.076H286.366L281.931 199.911Z" fill="#BBB1BA"/>
<path d="M294.756 199.911H286.585L291.799 165.855H299.931L294.756 199.911Z" fill="#BBB1BA"/>
<path d="M307.582 199.911H299.41L305.265 161.202H313.391L307.582 199.911Z" fill="#BBB1BA"/>
<path d="M320.407 199.911H312.235L319.29 152.686H327.406L320.407 199.911Z" fill="#BBB1BA"/>
<path d="M329.49 201.717H237.864L238.153 199.911H329.755L329.49 201.717Z" fill="#BBB1BA"/>
<path d="M304.717 281.91C303.342 300.893 286.844 316.276 267.861 316.276C248.884 316.276 234.704 300.893 236.195 281.91C237.168 269.528 244.544 258.67 254.786 252.619L268.08 283.734L303.473 270.014C304.569 273.722 305.019 277.729 304.717 281.91Z" fill="#BBB1BA"/>
<path d="M286.386 237.557L272.32 272.479L276.73 236.295C276.91 236.289 277.096 236.289 277.276 236.289C280.467 236.288 283.518 236.731 286.386 237.557Z" fill="#BBB1BA"/>
<path d="M310.574 264.043L275.208 277.763L289.269 242.841C299.62 245.81 307.541 253.773 310.574 264.043Z" fill="#BBB1BA"/>
<path d="M272.962 238.796L268.54 274.98L255.259 243.865C260.547 240.739 266.617 238.895 272.962 238.796Z" fill="#BBB1BA"/>
<path d="M183.461 155.479C183.48 155.381 183.49 155.294 183.49 155.196V155.479H183.461Z" fill="#F29F04"/>
<path d="M139.993 117.932C139.993 117.932 167.917 141.45 173.905 139.061C179.893 136.672 187.546 121.209 192.213 115.352C194.783 112.126 201.194 106.997 208.1 110.902C215.006 114.807 212.588 127.497 210.657 131.572C208.686 135.733 192.954 154.517 190.661 156.546C186.984 159.799 172.285 165.982 161.827 161.095C151.368 156.208 128.438 133.944 128.438 133.944L139.993 117.932Z" fill="#5D639B"/>
<path d="M164.127 322.808L157.313 345.755L124.867 341.944C124.867 341.944 122.157 336.672 129.016 336.011C135.818 335.355 143.397 333.403 144.151 329.613C144.906 325.825 147.695 320.878 147.695 320.878L164.127 322.808Z" fill="#5D639B"/>
<path d="M190.992 178.014L136.261 325.961C136.261 325.961 157.37 337.287 168.637 329.762C169.347 329.288 218.241 204.047 218.241 204.047L224.434 185.876L190.992 178.014Z" fill="#4E508D"/>
<path d="M277 226.283L296.414 215.79L309.825 240.806C309.825 240.806 306.667 246.899 303.184 241.574C299.652 236.175 297.018 234.116 293.939 235.916C290.86 237.715 285.733 238.818 285.733 238.818L277 226.283Z" fill="#5D639B"/>
<path d="M211.385 187.889C211.385 187.889 204.632 247.616 207.825 259.688C212.054 275.67 227.284 279.298 235.711 276.95C241.439 275.354 292.269 241.823 292.269 241.823C292.269 241.823 287.948 218.305 281.301 216.262C264.574 224.036 242.081 241.356 242.081 241.356L242.859 191.874L211.385 187.889Z" fill="#4E508D"/>
<path d="M241.566 240.642L241.368 249.508L242.048 249.524L242.246 240.657L241.566 240.642Z" fill="#F2E1D1"/>
<path d="M206.921 243.776C206.539 236.535 207.575 221.934 207.727 219.859L204.452 218.508L204.711 217.879L208.445 219.416L208.425 219.662C208.412 219.825 207.195 236.018 207.602 243.74L206.921 243.776Z" fill="#F2E1D1"/>
<path d="M181.698 196.547C181.698 196.547 227.328 217.438 242.721 205.619C248.751 200.989 263.475 130.301 256.328 119.031C250.827 110.356 202.382 103.757 197.985 110.991C195.382 115.271 181.698 196.547 181.698 196.547Z" fill="#5D639B"/>
<path d="M124.244 153.276C124.231 153.372 124.228 153.46 124.233 153.559L124.204 153.555L124.244 153.276Z" fill="#F29F04"/>
<path d="M195.285 173.86L194.402 180.116C194.389 180.212 194.367 180.298 194.334 180.391C193.066 184.224 176.726 185.122 157.215 182.367C137.714 179.613 122.262 174.226 122.094 170.191C122.088 170.091 122.091 170.004 122.105 169.907L122.988 163.651C122.83 164.77 123.913 166.005 125.978 167.259C129.172 169.214 134.73 171.219 141.711 172.961C146.582 174.18 152.152 175.262 158.099 176.101C164.047 176.941 169.698 177.445 174.717 177.622C181.906 177.88 187.802 177.493 191.413 176.499C193.744 175.865 195.128 174.979 195.285 173.86Z" fill="#F29F04"/>
<path d="M195.305 173.725C195.147 174.843 193.764 175.729 191.432 176.363C187.821 177.357 181.926 177.744 174.736 177.485C169.717 177.307 164.066 176.805 158.119 175.965C152.171 175.125 146.602 174.043 141.73 172.824C134.75 171.082 129.193 169.077 125.998 167.122C123.933 165.867 122.849 164.633 123.007 163.514C123.033 163.331 123.086 163.162 123.179 162.988C125.066 159.371 141.116 158.579 160.193 161.273C179.279 163.969 194.472 169.171 195.284 173.17C195.326 173.364 195.331 173.541 195.305 173.725Z" fill="#F29F04"/>
<path d="M178.845 178.039C177.52 178.039 176.138 178.014 174.705 177.962C169.512 177.778 163.909 177.266 158.052 176.439C152.193 175.611 146.667 174.552 141.628 173.291C141.445 173.246 141.334 173.061 141.38 172.879C141.426 172.696 141.614 172.587 141.793 172.631C146.809 173.886 152.312 174.941 158.148 175.764C163.981 176.588 169.561 177.099 174.73 177.282C181.891 177.539 187.786 177.144 191.323 176.171C191.508 176.119 191.692 176.228 191.743 176.41C191.792 176.591 191.685 176.779 191.504 176.828C188.615 177.623 184.207 178.039 178.845 178.039Z" fill="#D97803"/>
<path d="M167.544 183.851C167.531 183.851 167.517 183.851 167.503 183.849C167.317 183.826 167.183 183.656 167.206 183.469L167.94 177.535C167.963 177.349 168.126 177.215 168.32 177.239C168.506 177.262 168.64 177.432 168.617 177.619L167.883 183.553C167.861 183.725 167.715 183.851 167.544 183.851Z" fill="#D97803"/>
<path d="M177.138 184.477C177.126 184.477 177.114 184.477 177.102 184.475C176.915 184.455 176.779 184.289 176.799 184.101L177.459 177.948C177.478 177.762 177.636 177.629 177.834 177.645C178.021 177.666 178.156 177.833 178.137 178.02L177.476 184.173C177.459 184.348 177.31 184.477 177.138 184.477Z" fill="#D97803"/>
<path d="M155.763 182.5C155.747 182.5 155.732 182.499 155.715 182.497C155.529 182.471 155.399 182.299 155.425 182.112L156.29 175.988C156.316 175.802 156.48 175.671 156.675 175.698C156.861 175.724 156.991 175.897 156.965 176.084L156.1 182.208C156.077 182.378 155.93 182.5 155.763 182.5Z" fill="#D97803"/>
<path d="M184.484 184.058C184.474 184.058 184.464 184.058 184.454 184.057C184.267 184.039 184.128 183.874 184.145 183.687L184.689 177.622C184.707 177.435 184.858 177.293 185.059 177.313C185.246 177.33 185.385 177.496 185.368 177.683L184.824 183.748C184.807 183.924 184.659 184.058 184.484 184.058Z" fill="#D97803"/>
<path d="M146.052 180.504C146.032 180.504 146.013 180.502 145.992 180.5C145.808 180.466 145.685 180.29 145.717 180.104L146.743 174.316C146.775 174.131 146.936 174.007 147.138 174.039C147.322 174.072 147.446 174.248 147.414 174.434L146.387 180.223C146.357 180.389 146.214 180.504 146.052 180.504Z" fill="#D97803"/>
<path d="M196.098 166.631L195.215 172.886C195.201 172.983 195.179 173.069 195.147 173.162C193.878 176.994 177.538 177.892 158.028 175.137C138.527 172.383 123.075 166.997 122.906 162.961C122.901 162.862 122.903 162.774 122.917 162.678L123.8 156.422C123.642 157.541 124.726 158.775 126.791 160.03C129.985 161.985 135.543 163.989 142.523 165.732C147.395 166.951 152.964 168.032 158.912 168.873C164.859 169.713 170.51 170.215 175.529 170.393C182.719 170.651 188.614 170.265 192.225 169.271C194.557 168.634 195.94 167.748 196.098 166.631Z" fill="#F29F04"/>
<path d="M196.118 166.494C195.96 167.613 194.576 168.499 192.245 169.133C188.634 170.127 182.739 170.514 175.549 170.255C170.53 170.077 164.879 169.575 158.931 168.734C152.984 167.894 147.414 166.813 142.543 165.594C135.562 163.851 130.005 161.847 126.81 159.892C124.745 158.637 123.662 157.402 123.82 156.284C123.845 156.101 123.898 155.931 123.992 155.758C125.879 152.141 141.928 151.35 161.006 154.044C180.092 156.739 195.285 161.942 196.097 165.94C196.139 166.133 196.144 166.311 196.118 166.494Z" fill="#F29F04"/>
<path d="M179.657 170.809C178.332 170.809 176.95 170.784 175.517 170.732C170.325 170.548 164.721 170.036 158.865 169.208C153.003 168.38 147.479 167.322 142.441 166.061C142.258 166.015 142.147 165.83 142.192 165.648C142.238 165.465 142.427 165.355 142.606 165.401C147.62 166.656 153.123 167.71 158.961 168.535C164.794 169.358 170.373 169.869 175.542 170.053C182.704 170.311 188.599 169.914 192.136 168.942C192.32 168.888 192.505 168.999 192.555 169.18C192.605 169.361 192.498 169.549 192.317 169.599C189.428 170.392 185.019 170.809 179.657 170.809Z" fill="#D97803"/>
<path d="M168.357 176.621C168.343 176.621 168.33 176.62 168.315 176.618C168.129 176.596 167.996 176.425 168.018 176.238L168.752 170.305C168.776 170.119 168.937 169.986 169.133 170.009C169.319 170.031 169.452 170.201 169.43 170.388L168.696 176.322C168.673 176.495 168.527 176.621 168.357 176.621Z" fill="#D97803"/>
<path d="M177.949 177.247C177.938 177.247 177.926 177.247 177.913 177.245C177.726 177.225 177.591 177.057 177.611 176.869L178.272 170.716C178.291 170.531 178.446 170.395 178.646 170.414C178.833 170.434 178.969 170.602 178.949 170.789L178.288 176.942C178.271 177.117 178.122 177.247 177.949 177.247Z" fill="#D97803"/>
<path d="M156.575 175.271C156.56 175.271 156.544 175.27 156.528 175.268C156.341 175.241 156.211 175.069 156.237 174.882L157.103 168.758C157.128 168.572 157.29 168.437 157.488 168.468C157.674 168.494 157.805 168.666 157.779 168.852L156.913 174.977C156.89 175.147 156.743 175.271 156.575 175.271Z" fill="#D97803"/>
<path d="M185.297 176.827C185.287 176.827 185.277 176.826 185.266 176.826C185.08 176.81 184.94 176.643 184.958 176.456L185.502 170.391C185.52 170.204 185.669 170.062 185.872 170.083C186.059 170.099 186.198 170.266 186.181 170.453L185.636 176.518C185.62 176.695 185.472 176.827 185.297 176.827Z" fill="#D97803"/>
<path d="M146.864 173.274C146.845 173.274 146.825 173.272 146.804 173.269C146.62 173.236 146.496 173.06 146.528 172.874L147.555 167.084C147.587 166.899 147.746 166.775 147.95 166.808C148.134 166.841 148.257 167.017 148.225 167.203L147.199 172.993C147.17 173.158 147.027 173.274 146.864 173.274Z" fill="#D97803"/>
<path d="M194.612 166.837L193.729 173.093C193.715 173.189 193.693 173.275 193.661 173.368C192.392 177.2 176.052 178.099 156.541 175.344C137.041 172.59 121.589 167.203 121.42 163.168C121.414 163.068 121.417 162.981 121.431 162.884L122.315 156.628C122.157 157.747 123.241 158.981 125.306 160.236C128.5 162.191 134.058 164.196 141.038 165.938C145.909 167.157 151.479 168.239 157.426 169.079C163.374 169.919 169.025 170.421 174.044 170.6C181.233 170.858 187.128 170.471 190.74 169.477C193.071 168.84 194.454 167.955 194.612 166.837Z" fill="#F29F04"/>
<path d="M194.631 166.701C194.473 167.819 193.09 168.705 190.758 169.339C187.148 170.333 181.253 170.72 174.062 170.461C169.044 170.283 163.392 169.781 157.445 168.941C151.498 168.101 145.928 167.019 141.056 165.801C134.076 164.058 128.519 162.054 125.324 160.099C123.259 158.844 122.176 157.61 122.333 156.491C122.359 156.308 122.412 156.139 122.506 155.965C124.393 152.349 140.442 151.557 159.52 154.251C178.606 156.947 193.799 162.149 194.611 166.148C194.653 166.339 194.657 166.518 194.631 166.701Z" fill="#F29F04"/>
<path d="M178.173 171.015C176.848 171.015 175.464 170.99 174.031 170.938C168.838 170.754 163.236 170.242 157.379 169.415C147.505 168.02 137.724 165.377 129.095 161.769C128.92 161.697 128.838 161.497 128.91 161.323C128.984 161.149 129.183 161.066 129.356 161.14C137.934 164.725 147.657 167.353 157.473 168.739C163.307 169.563 168.886 170.074 174.055 170.257C181.218 170.516 187.113 170.12 190.648 169.146C190.832 169.094 191.018 169.204 191.068 169.385C191.118 169.566 191.011 169.754 190.829 169.803C187.943 170.599 183.535 171.015 178.173 171.015Z" fill="#D97803"/>
<path d="M166.871 176.828C166.857 176.828 166.843 176.827 166.829 176.825C166.643 176.803 166.509 176.633 166.532 176.446L167.266 170.511C167.289 170.325 167.451 170.189 167.647 170.215C167.833 170.237 167.966 170.408 167.944 170.595L167.209 176.529C167.187 176.702 167.04 176.828 166.871 176.828Z" fill="#D97803"/>
<path d="M176.464 177.454C176.452 177.454 176.441 177.454 176.428 177.452C176.241 177.432 176.106 177.264 176.125 177.077L176.786 170.924C176.806 170.738 176.963 170.604 177.161 170.621C177.348 170.641 177.483 170.809 177.464 170.997L176.803 177.15C176.784 177.324 176.636 177.454 176.464 177.454Z" fill="#D97803"/>
<path d="M155.09 175.477C155.074 175.477 155.059 175.476 155.042 175.474C154.856 175.448 154.726 175.276 154.752 175.089L155.617 168.964C155.642 168.779 155.807 168.643 156.001 168.674C156.187 168.7 156.317 168.873 156.291 169.059L155.427 175.183C155.403 175.353 155.257 175.477 155.09 175.477Z" fill="#D97803"/>
<path d="M183.81 177.034C183.801 177.034 183.79 177.033 183.78 177.033C183.593 177.016 183.454 176.85 183.471 176.663L184.017 170.598C184.034 170.411 184.194 170.274 184.387 170.289C184.574 170.306 184.713 170.472 184.695 170.659L184.15 176.724C184.133 176.9 183.985 177.034 183.81 177.034Z" fill="#D97803"/>
<path d="M145.377 173.48C145.357 173.48 145.338 173.478 145.317 173.475C145.133 173.442 145.009 173.266 145.041 173.08L146.067 167.292C146.1 167.107 146.262 166.984 146.462 167.015C146.646 167.048 146.77 167.224 146.738 167.41L145.712 173.199C145.684 173.364 145.54 173.48 145.377 173.48Z" fill="#D97803"/>
<path d="M198.858 160.357L197.975 166.613C197.962 166.709 197.94 166.795 197.907 166.888C196.639 170.72 180.299 171.619 160.788 168.864C141.287 166.11 125.835 160.723 125.667 156.688C125.661 156.588 125.664 156.501 125.677 156.404L126.561 150.149C126.404 151.267 127.487 152.502 129.552 153.756C132.746 155.711 138.304 157.716 145.285 159.458C150.156 160.677 155.726 161.759 161.673 162.599C167.62 163.439 173.272 163.942 178.29 164.12C185.48 164.378 191.376 163.991 194.987 162.997C197.317 162.362 198.701 161.476 198.858 160.357Z" fill="#F29F04"/>
<path d="M198.878 160.221C198.72 161.339 197.337 162.225 195.005 162.859C191.394 163.853 185.499 164.24 178.309 163.982C173.29 163.803 167.639 163.301 161.692 162.461C155.744 161.621 150.175 160.539 145.303 159.32C138.323 157.578 132.766 155.574 129.571 153.618C127.506 152.363 126.422 151.129 126.58 150.01C126.606 149.827 126.659 149.658 126.752 149.485C128.64 145.868 144.689 145.076 163.766 147.77C182.852 150.466 198.046 155.668 198.857 159.667C198.899 159.861 198.903 160.038 198.878 160.221Z" fill="#F29F04"/>
<path d="M182.416 164.536C181.091 164.536 179.71 164.511 178.277 164.46C173.082 164.276 167.479 163.762 161.624 162.936C155.77 162.109 150.246 161.051 145.201 159.788C145.018 159.743 144.907 159.558 144.953 159.376C144.998 159.193 145.186 159.083 145.366 159.128C150.387 160.384 155.89 161.439 161.72 162.261C167.551 163.085 173.132 163.596 178.302 163.78C185.464 164.037 191.358 163.642 194.896 162.668C195.079 162.614 195.265 162.726 195.316 162.907C195.365 163.088 195.258 163.276 195.077 163.325C192.188 164.12 187.778 164.536 182.416 164.536Z" fill="#D97803"/>
<path d="M171.117 170.348C171.104 170.348 171.09 170.347 171.076 170.346C170.89 170.323 170.756 170.153 170.779 169.966L171.489 164.221C170.802 163.685 167.717 161.382 163.393 159.816C158.322 157.977 151.063 146.199 150.757 145.698C150.658 145.538 150.709 145.329 150.87 145.23C151.027 145.13 151.24 145.181 151.338 145.343C151.411 145.464 158.778 157.417 163.625 159.175C168.641 160.994 171.93 163.697 172.069 163.812C172.158 163.886 172.204 164.001 172.189 164.116L171.455 170.05C171.434 170.222 171.288 170.348 171.117 170.348Z" fill="#D97803"/>
<path d="M180.71 170.974C180.698 170.974 180.686 170.974 180.674 170.973C180.487 170.952 180.351 170.785 180.371 170.597L181.032 164.444C181.051 164.258 181.206 164.119 181.407 164.141C181.594 164.162 181.729 164.329 181.709 164.517L181.048 170.67C181.03 170.845 180.882 170.974 180.71 170.974Z" fill="#D97803"/>
<path d="M159.336 168.997C159.32 168.997 159.304 168.996 159.288 168.994C159.102 168.968 158.971 168.796 158.998 168.61L159.863 162.485C159.889 162.3 160.051 162.163 160.249 162.195C160.435 162.221 160.565 162.394 160.539 162.581L159.673 168.705C159.65 168.875 159.503 168.997 159.336 168.997Z" fill="#D97803"/>
<path d="M188.057 170.555C188.047 170.555 188.036 170.555 188.027 170.554C187.84 170.537 187.701 170.371 187.718 170.184L188.262 164.119C188.28 163.932 188.436 163.792 188.632 163.81C188.819 163.827 188.958 163.993 188.941 164.18L188.397 170.245C188.38 170.421 188.232 170.555 188.057 170.555Z" fill="#D97803"/>
<path d="M149.625 167.001C149.605 167.001 149.586 166.999 149.564 166.997C149.38 166.963 149.257 166.787 149.289 166.601L150.315 160.812C150.347 160.627 150.508 160.501 150.71 160.535C150.894 160.568 151.018 160.745 150.986 160.93L149.959 166.72C149.93 166.886 149.787 167.001 149.625 167.001Z" fill="#D97803"/>
<path d="M197.943 153.566L197.06 159.822C197.046 159.918 197.024 160.004 196.992 160.097C195.723 163.929 179.383 164.828 159.873 162.072C140.372 159.318 124.92 153.932 124.751 149.896C124.745 149.797 124.748 149.709 124.762 149.613L125.646 143.357C125.488 144.476 126.572 145.71 128.637 146.965C131.831 148.92 137.389 150.924 144.369 152.667C149.241 153.886 154.81 154.968 160.758 155.808C166.705 156.648 172.356 157.15 177.375 157.328C184.565 157.586 190.459 157.2 194.071 156.206C196.402 155.57 197.785 154.683 197.943 153.566Z" fill="#F29F04"/>
<path d="M197.962 153.429C197.805 154.548 196.421 155.434 194.09 156.068C190.479 157.062 184.584 157.449 177.393 157.19C172.375 157.012 166.724 156.51 160.776 155.669C154.829 154.829 149.259 153.748 144.388 152.529C137.407 150.786 131.85 148.782 128.655 146.827C126.59 145.572 125.507 144.337 125.665 143.219C125.691 143.036 125.743 142.866 125.837 142.693C127.725 139.076 143.773 138.285 162.851 140.979C181.937 143.674 197.131 148.877 197.942 152.875C197.984 153.068 197.989 153.246 197.962 153.429Z" fill="#F29F04"/>
<path d="M181.504 157.744C180.179 157.744 178.795 157.719 177.362 157.667C172.169 157.483 166.567 156.971 160.71 156.144C154.851 155.316 149.326 154.257 144.286 152.996C144.103 152.95 143.992 152.765 144.038 152.583C144.085 152.4 144.271 152.289 144.452 152.336C149.468 153.591 154.971 154.645 160.805 155.469C166.639 156.293 172.218 156.804 177.388 156.987C184.55 157.246 190.446 156.849 193.981 155.876C194.167 155.825 194.35 155.933 194.4 156.114C194.45 156.295 194.343 156.483 194.162 156.533C191.274 157.328 186.866 157.744 181.504 157.744Z" fill="#D97803"/>
<path d="M170.202 163.557C170.188 163.557 170.175 163.556 170.16 163.554C169.974 163.532 169.841 163.361 169.863 163.174L170.597 157.24C170.62 157.054 170.779 156.919 170.978 156.944C171.164 156.966 171.297 157.137 171.275 157.323L170.541 163.258C170.519 163.431 170.372 163.557 170.202 163.557Z" fill="#D97803"/>
<path d="M179.795 164.183C179.784 164.183 179.772 164.182 179.759 164.181C179.572 164.161 179.437 163.993 179.456 163.805L180.117 157.653C180.137 157.467 180.297 157.33 180.492 157.35C180.679 157.37 180.814 157.538 180.795 157.726L180.134 163.878C180.115 164.054 179.968 164.183 179.795 164.183Z" fill="#D97803"/>
<path d="M158.421 162.206C158.406 162.206 158.39 162.205 158.373 162.203C158.187 162.177 158.057 162.004 158.083 161.817L158.949 155.694C158.974 155.508 159.139 155.375 159.333 155.404C159.519 155.43 159.65 155.602 159.623 155.789L158.758 161.913C158.735 162.082 158.589 162.206 158.421 162.206Z" fill="#D97803"/>
<path d="M187.142 163.762C187.132 163.762 187.121 163.762 187.111 163.761C186.924 163.745 186.785 163.578 186.803 163.392L187.348 157.326C187.365 157.139 187.513 157.003 187.718 157.018C187.905 157.034 188.044 157.201 188.026 157.388L187.481 163.453C187.465 163.63 187.317 163.762 187.142 163.762Z" fill="#D97803"/>
<path d="M148.708 160.21C148.689 160.21 148.669 160.208 148.648 160.205C148.464 160.172 148.34 159.996 148.372 159.81L149.398 154.021C149.431 153.836 149.594 153.711 149.794 153.745C149.978 153.778 150.101 153.954 150.069 154.14L149.043 159.929C149.015 160.093 148.871 160.21 148.708 160.21Z" fill="#D97803"/>
<path d="M196.824 146.745L195.941 153.001C195.928 153.097 195.905 153.183 195.873 153.276C194.605 157.109 178.265 158.007 158.754 155.252C139.253 152.498 123.801 147.111 123.633 143.076C123.627 142.976 123.63 142.889 123.643 142.792L124.527 136.536C124.37 137.655 125.453 138.89 127.518 140.144C130.712 142.099 136.27 144.104 143.25 145.846C148.122 147.065 153.692 148.147 159.639 148.987C165.586 149.827 171.238 150.33 176.256 150.508C183.446 150.766 189.341 150.379 192.953 149.385C195.283 148.75 196.667 147.863 196.824 146.745Z" fill="#F29F04"/>
<path d="M196.844 146.609C196.686 147.727 195.303 148.613 192.971 149.247C189.36 150.241 183.465 150.628 176.275 150.369C171.256 150.191 165.605 149.689 159.658 148.849C153.71 148.009 148.141 146.927 143.269 145.709C136.289 143.967 130.732 141.962 127.537 140.007C125.472 138.752 124.388 137.518 124.546 136.399C124.572 136.216 124.625 136.047 124.718 135.873C126.606 132.257 142.655 131.465 161.732 134.159C180.818 136.855 196.011 142.057 196.823 146.056C196.865 146.248 196.869 146.426 196.844 146.609Z" fill="#F29F04"/>
<path d="M180.382 150.923C179.058 150.923 177.676 150.898 176.243 150.847C171.048 150.663 165.445 150.149 159.59 149.323L158.954 149.233C152.949 148.389 142.9 146.978 132.201 142.778C132.026 142.71 131.939 142.512 132.008 142.336C132.077 142.161 132.276 142.075 132.45 142.143C143.075 146.314 153.074 147.719 159.048 148.558L159.686 148.647C165.517 149.471 171.098 149.982 176.268 150.166C183.428 150.423 189.325 150.029 192.861 149.054C193.047 149.004 193.23 149.112 193.281 149.293C193.33 149.474 193.223 149.662 193.042 149.711C190.155 150.507 185.745 150.923 180.382 150.923Z" fill="#D97803"/>
<path d="M169.083 156.736C169.07 156.736 169.056 156.735 169.041 156.733C168.855 156.71 168.722 156.541 168.744 156.354L169.479 150.42C169.502 150.234 169.664 150.098 169.859 150.124C170.045 150.147 170.178 150.317 170.156 150.504L169.422 156.438C169.4 156.61 169.254 156.736 169.083 156.736Z" fill="#D97803"/>
<path d="M178.677 157.362C178.665 157.362 178.652 157.361 178.641 157.36C178.454 157.34 178.318 157.173 178.338 156.985L178.999 150.832C179.018 150.646 179.173 150.511 179.374 150.529C179.561 150.55 179.696 150.717 179.676 150.905L179.015 157.058C178.997 157.232 178.848 157.362 178.677 157.362Z" fill="#D97803"/>
<path d="M157.302 155.385C157.286 155.385 157.27 155.384 157.254 155.382C157.068 155.356 156.937 155.184 156.964 154.997L157.829 148.872C157.854 148.686 158.02 148.552 158.215 148.582C158.401 148.608 158.531 148.781 158.505 148.967L157.639 155.09C157.616 155.262 157.469 155.385 157.302 155.385Z" fill="#D97803"/>
<path d="M186.022 156.943C186.012 156.943 186.001 156.942 185.992 156.941C185.805 156.924 185.666 156.758 185.683 156.571L186.228 150.506C186.246 150.319 186.406 150.179 186.598 150.197C186.785 150.214 186.924 150.38 186.907 150.567L186.362 156.632C186.345 156.809 186.197 156.943 186.022 156.943Z" fill="#D97803"/>
<path d="M147.59 153.389C147.57 153.389 147.551 153.387 147.529 153.385C147.345 153.351 147.222 153.175 147.254 152.989L148.28 147.2C148.313 147.015 148.473 146.892 148.675 146.923C148.86 146.956 148.984 147.132 148.951 147.318L147.924 153.108C147.895 153.274 147.752 153.389 147.59 153.389Z" fill="#D97803"/>
<path d="M199.788 140.501L198.905 146.757C198.891 146.853 198.87 146.939 198.837 147.032C197.568 150.864 181.228 151.763 161.718 149.008C142.217 146.253 126.765 140.867 126.596 136.832C126.59 136.732 126.593 136.645 126.607 136.548L127.49 130.292C127.332 131.411 128.416 132.645 130.481 133.9C133.675 135.855 139.233 137.86 146.213 139.602C151.085 140.821 156.654 141.903 162.602 142.743C168.549 143.583 174.2 144.085 179.219 144.263C186.408 144.521 192.304 144.135 195.915 143.141C198.247 142.505 199.63 141.618 199.788 140.501Z" fill="#F29F04"/>
<path d="M199.807 140.364C199.65 141.483 198.266 142.369 195.935 143.003C192.324 143.997 186.429 144.384 179.238 144.125C174.22 143.947 168.568 143.445 162.621 142.605C156.674 141.764 151.104 140.683 146.232 139.464C139.252 137.721 133.695 135.717 130.5 133.762C128.435 132.507 127.352 131.273 127.509 130.154C127.536 129.971 127.588 129.802 127.682 129.628C129.568 126.012 145.618 125.22 164.696 127.914C183.782 130.61 198.975 135.812 199.787 139.811C199.829 140.004 199.834 140.181 199.807 140.364Z" fill="#F29F04"/>
<path d="M183.349 144.679C182.024 144.679 180.64 144.654 179.207 144.602C174.014 144.418 168.412 143.906 162.555 143.079C156.695 142.251 151.169 141.192 146.13 139.931C145.947 139.885 145.836 139.701 145.882 139.518C145.929 139.335 146.115 139.224 146.296 139.271C151.311 140.526 156.815 141.58 162.65 142.404C168.484 143.228 174.063 143.739 179.233 143.922C186.395 144.179 192.291 143.784 195.826 142.811C196.011 142.759 196.195 142.868 196.245 143.049C196.295 143.231 196.188 143.418 196.007 143.468C193.119 144.263 188.711 144.679 183.349 144.679Z" fill="#D97803"/>
<path d="M172.047 150.492C172.033 150.492 172.02 150.491 172.005 150.489C171.819 150.467 171.686 150.296 171.708 150.11L172.442 144.175C172.465 143.989 172.628 143.852 172.823 143.879C173.009 143.901 173.142 144.072 173.12 144.259L172.386 150.193C172.363 150.366 172.217 150.492 172.047 150.492Z" fill="#D97803"/>
<path d="M181.64 151.118C181.628 151.118 181.617 151.117 181.604 151.116C181.417 151.097 181.282 150.928 181.301 150.741L181.961 144.589C181.981 144.403 182.139 144.272 182.336 144.286C182.523 144.306 182.658 144.474 182.639 144.661L181.979 150.813C181.961 150.989 181.812 151.118 181.64 151.118Z" fill="#D97803"/>
<path d="M160.265 149.141C160.249 149.141 160.234 149.14 160.217 149.138C160.031 149.112 159.901 148.939 159.927 148.753L160.793 142.629C160.818 142.443 160.981 142.307 161.177 142.339C161.363 142.365 161.494 142.537 161.467 142.724L160.602 148.849C160.58 149.017 160.432 149.141 160.265 149.141Z" fill="#D97803"/>
<path d="M188.986 150.698C188.977 150.698 188.967 150.698 188.956 150.697C188.769 150.68 188.63 150.514 188.648 150.327L189.192 144.262C189.209 144.075 189.357 143.935 189.562 143.953C189.749 143.969 189.888 144.136 189.87 144.323L189.326 150.388C189.31 150.565 189.162 150.698 188.986 150.698Z" fill="#D97803"/>
<path d="M150.554 147.144C150.535 147.144 150.515 147.142 150.495 147.139C150.311 147.106 150.187 146.93 150.219 146.744L151.245 140.955C151.278 140.771 151.438 140.645 151.64 140.679C151.824 140.712 151.948 140.888 151.916 141.074L150.89 146.863C150.86 147.028 150.717 147.144 150.554 147.144Z" fill="#D97803"/>
<path d="M202.232 134.253L201.349 140.509C201.336 140.605 201.314 140.691 201.281 140.784C200.013 144.617 183.673 145.514 164.162 142.759C144.661 140.005 129.209 134.619 129.041 130.583C129.035 130.484 129.038 130.396 129.052 130.3L129.936 124.044C129.778 125.163 130.861 126.397 132.926 127.652C136.12 129.608 141.678 131.611 148.659 133.354C153.53 134.573 159.1 135.654 165.047 136.495C170.994 137.335 176.646 137.837 181.664 138.015C188.854 138.273 194.749 137.887 198.361 136.893C200.69 136.257 202.075 135.371 202.232 134.253Z" fill="#F29F04"/>
<path d="M202.363 134.063C202.205 135.18 200.822 136.067 198.49 136.701C194.879 137.695 188.985 138.082 181.794 137.823C176.775 137.645 171.124 137.143 165.177 136.303C159.229 135.463 153.66 134.381 148.788 133.162C141.808 131.42 136.251 129.416 133.056 127.46C130.991 126.205 129.907 124.971 130.065 123.852C130.091 123.669 130.144 123.5 130.237 123.327C132.124 119.71 148.174 118.918 167.251 121.612C186.337 124.308 201.531 129.51 202.342 133.509C202.384 133.702 202.389 133.88 202.363 134.063Z" fill="#F29F04"/>
<path d="M185.907 138.377C184.581 138.377 183.198 138.352 181.763 138.301C176.57 138.117 170.967 137.604 165.11 136.777C159.251 135.949 153.725 134.89 148.686 133.63C148.503 133.584 148.392 133.399 148.438 133.217C148.483 133.034 148.671 132.924 148.851 132.969C153.867 134.224 159.371 135.279 165.206 136.102C171.039 136.926 176.619 137.437 181.788 137.62C188.948 137.876 194.844 137.484 198.381 136.509C198.565 136.458 198.75 136.567 198.801 136.748C198.85 136.929 198.743 137.117 198.562 137.166C195.674 137.961 191.268 138.377 185.907 138.377Z" fill="#D97803"/>
<path d="M174.602 144.19C174.589 144.19 174.575 144.189 174.561 144.188C174.375 144.165 174.241 143.995 174.264 143.808L174.998 137.873C175.021 137.687 175.184 137.554 175.378 137.577C175.564 137.6 175.698 137.77 175.675 137.957L174.941 143.892C174.919 144.064 174.773 144.19 174.602 144.19Z" fill="#D97803"/>
<path d="M184.196 144.816C184.184 144.816 184.172 144.815 184.16 144.814C183.973 144.794 183.837 144.627 183.857 144.44L184.517 138.287C184.536 138.101 184.692 137.972 184.892 137.984C185.079 138.004 185.214 138.172 185.195 138.359L184.534 144.512C184.517 144.687 184.368 144.816 184.196 144.816Z" fill="#D97803"/>
<path d="M162.821 142.839C162.805 142.839 162.79 142.838 162.773 142.836C162.587 142.81 162.457 142.638 162.483 142.451L163.348 136.326C163.374 136.14 163.536 136.008 163.733 136.036C163.919 136.062 164.049 136.235 164.023 136.422L163.158 142.546C163.135 142.717 162.988 142.839 162.821 142.839Z" fill="#D97803"/>
<path d="M191.542 144.397C191.532 144.397 191.523 144.396 191.512 144.396C191.325 144.379 191.186 144.213 191.203 144.026L191.747 137.961C191.765 137.774 191.922 137.639 192.117 137.652C192.304 137.669 192.443 137.835 192.426 138.022L191.882 144.087C191.865 144.263 191.717 144.397 191.542 144.397Z" fill="#D97803"/>
<path d="M153.11 140.842C153.09 140.842 153.071 140.841 153.05 140.838C152.866 140.804 152.743 140.628 152.775 140.442L153.801 134.654C153.834 134.469 153.995 134.344 154.196 134.377C154.38 134.41 154.504 134.586 154.472 134.772L153.446 140.561C153.415 140.727 153.272 140.842 153.11 140.842Z" fill="#D97803"/>
<path d="M199.592 127.148L198.709 133.404C198.695 133.5 198.674 133.586 198.641 133.679C197.372 137.512 181.033 138.41 161.522 135.655C142.021 132.9 126.569 127.514 126.401 123.478C126.395 123.379 126.398 123.292 126.411 123.195L127.294 116.939C127.137 118.058 128.22 119.292 130.285 120.547C133.479 122.502 139.037 124.507 146.017 126.249C150.889 127.468 156.459 128.55 162.406 129.39C168.353 130.23 174.005 130.732 179.023 130.91C186.213 131.168 192.109 130.782 195.719 129.788C198.05 129.152 199.433 128.266 199.592 127.148Z" fill="#F29F04"/>
<path d="M199.611 127.011C199.453 128.13 198.07 129.016 195.738 129.65C192.127 130.644 186.232 131.031 179.042 130.772C174.023 130.594 168.372 130.092 162.424 129.252C156.477 128.411 150.907 127.33 146.036 126.112C139.056 124.369 133.499 122.365 130.303 120.41C128.239 119.155 127.155 117.921 127.313 116.802C127.339 116.619 127.392 116.45 127.485 116.276C129.373 112.66 145.422 111.868 164.499 114.562C183.585 117.258 198.778 122.46 199.59 126.458C199.632 126.651 199.637 126.828 199.611 127.011Z" fill="#F29F04"/>
<path d="M183.152 131.326C181.827 131.326 180.444 131.301 179.011 131.249C173.818 131.065 168.215 130.553 162.358 129.726C157.299 129.011 141.902 126.837 134.22 122.82C134.053 122.734 133.989 122.527 134.076 122.361C134.163 122.194 134.371 122.129 134.536 122.217C139.566 124.845 148.958 127.145 162.455 129.051C168.288 129.875 173.867 130.386 179.037 130.569C186.198 130.827 192.095 130.43 195.63 129.458C195.816 129.406 195.999 129.515 196.049 129.696C196.099 129.878 195.992 130.065 195.811 130.115C192.922 130.91 188.514 131.326 183.152 131.326Z" fill="#D97803"/>
<path d="M171.85 137.139C171.837 137.139 171.823 137.138 171.808 137.136C171.622 137.114 171.489 136.943 171.511 136.757L172.245 130.822C172.269 130.636 172.43 130.503 172.626 130.526C172.812 130.548 172.945 130.719 172.923 130.906L172.189 136.84C172.167 137.013 172.021 137.139 171.85 137.139Z" fill="#D97803"/>
<path d="M181.443 137.765C181.432 137.765 181.42 137.765 181.407 137.763C181.22 137.743 181.085 137.575 181.105 137.387L181.766 131.235C181.785 131.049 181.94 130.908 182.14 130.932C182.327 130.952 182.463 131.12 182.443 131.308L181.782 137.46C181.764 137.636 181.616 137.765 181.443 137.765Z" fill="#D97803"/>
<path d="M160.069 135.788C160.054 135.788 160.038 135.787 160.022 135.785C159.836 135.759 159.705 135.586 159.732 135.4L160.596 129.277C160.621 129.091 160.787 128.959 160.981 128.987C161.167 129.013 161.297 129.185 161.271 129.371L160.406 135.496C160.383 135.665 160.237 135.788 160.069 135.788Z" fill="#D97803"/>
<path d="M188.79 137.346C188.78 137.346 188.769 137.345 188.76 137.345C188.573 137.328 188.433 137.162 188.451 136.975L188.996 130.909C189.014 130.723 189.173 130.583 189.366 130.601C189.553 130.617 189.692 130.784 189.675 130.971L189.129 137.036C189.113 137.212 188.965 137.346 188.79 137.346Z" fill="#D97803"/>
<path d="M150.357 133.792C150.339 133.792 150.318 133.79 150.298 133.787C150.114 133.754 149.99 133.578 150.023 133.392L151.049 127.603C151.082 127.418 151.243 127.295 151.444 127.327C151.628 127.36 151.752 127.536 151.719 127.722L150.693 133.511C150.663 133.676 150.52 133.792 150.357 133.792Z" fill="#D97803"/>
<path d="M202.575 120.767C202.417 121.886 201.034 122.772 198.702 123.405C195.092 124.399 189.197 124.787 182.006 124.528C176.988 124.35 171.336 123.847 165.389 123.007C159.441 122.167 153.872 121.085 149 119.867C142.02 118.124 136.463 116.119 133.268 114.165C131.203 112.91 130.119 111.675 130.277 110.557C130.303 110.374 130.357 110.204 130.45 110.031C132.337 106.414 148.386 105.623 167.463 108.317C186.551 111.012 201.744 116.215 202.555 120.213C202.597 120.407 202.6 120.584 202.575 120.767Z" fill="#F29F04"/>
<path d="M202.556 120.903L201.672 127.159C201.658 127.256 201.637 127.341 201.604 127.435C200.335 131.267 184.074 131.529 164.484 129.41C145.574 127.365 130.146 122.005 129.363 117.234C129.347 117.136 129.36 117.047 129.374 116.951L130.258 110.695C130.1 111.814 131.184 113.048 133.249 114.303C136.443 116.258 142.001 118.262 148.981 120.005C153.852 121.224 159.422 122.305 165.369 123.146C171.317 123.986 176.968 124.489 181.987 124.666C189.176 124.924 195.071 124.538 198.683 123.544C201.015 122.908 202.398 122.022 202.556 120.903Z" fill="#F29F04"/>
<path d="M180.262 125.048C176.231 125.048 171.857 124.419 167.26 123.759L165.322 123.482C159.469 122.656 153.943 121.598 148.898 120.336C148.715 120.29 148.604 120.105 148.65 119.923C148.696 119.741 148.884 119.629 149.064 119.676C154.086 120.932 159.588 121.986 165.417 122.809L167.357 123.086C172.592 123.839 177.541 124.55 181.97 124.327C187.134 124.069 190.275 123.987 192.355 123.932C195.843 123.841 196.379 123.826 198.593 123.217C198.776 123.162 198.962 123.274 199.013 123.455C199.063 123.636 198.956 123.824 198.774 123.874C196.481 124.506 195.853 124.521 192.373 124.614C190.297 124.668 187.16 124.751 182.005 125.009C181.431 125.034 180.85 125.048 180.262 125.048Z" fill="#D97803"/>
<path d="M174.815 130.895C174.801 130.895 174.787 130.894 174.773 130.892C174.587 130.87 174.453 130.699 174.476 130.512L175.21 124.579C175.233 124.393 175.393 124.258 175.591 124.283C175.776 124.305 175.91 124.475 175.887 124.662L175.153 130.596C175.131 130.768 174.985 130.895 174.815 130.895Z" fill="#D97803"/>
<path d="M184.407 131.521C184.395 131.521 184.384 131.52 184.371 131.519C184.184 131.498 184.049 131.331 184.068 131.143L184.729 124.99C184.749 124.804 184.907 124.668 185.104 124.688C185.291 124.708 185.426 124.875 185.407 125.063L184.746 131.216C184.727 131.391 184.579 131.521 184.407 131.521Z" fill="#D97803"/>
<path d="M163.033 129.544C163.017 129.544 163.002 129.543 162.985 129.541C162.799 129.514 162.669 129.342 162.695 129.155L163.561 123.032C163.586 122.846 163.747 122.711 163.946 122.741C164.132 122.768 164.262 122.94 164.236 123.126L163.371 129.251C163.346 129.421 163.2 129.544 163.033 129.544Z" fill="#D97803"/>
<path d="M191.754 131.101C191.744 131.101 191.735 131.101 191.724 131.1C191.537 131.084 191.398 130.917 191.415 130.73L191.96 124.665C191.977 124.478 192.124 124.34 192.33 124.357C192.516 124.373 192.656 124.54 192.638 124.727L192.094 130.792C192.077 130.968 191.929 131.101 191.754 131.101Z" fill="#D97803"/>
<path d="M153.322 127.548C153.302 127.548 153.283 127.546 153.262 127.543C153.078 127.51 152.955 127.334 152.987 127.148L154.013 121.359C154.045 121.174 154.208 121.052 154.408 121.083C154.592 121.116 154.716 121.292 154.684 121.478L153.658 127.266C153.628 127.432 153.484 127.548 153.322 127.548Z" fill="#D97803"/>
<path d="M181.333 117.361C180.864 117.047 179.519 116.68 177.296 116.26L177.422 116.235C179.585 116.501 181.541 116.646 183.283 116.67C185.013 116.692 186.382 116.599 187.397 116.392C188.892 116.082 188.946 115.695 187.584 115.232C186.866 114.985 185.678 114.702 184.052 114.384L186.021 113.99C186.687 113.856 186.23 113.589 185.006 113.394C183.781 113.199 182.233 113.149 181.546 113.282L179.749 113.627C179.414 113.573 179.088 113.519 178.733 113.464L176.507 113.114L178.333 112.773C179.036 112.641 178.613 112.376 177.39 112.182C176.168 111.987 174.593 111.935 173.868 112.067L171.988 112.403L168.927 111.922L165.842 111.436C164.597 111.24 162.964 111.185 162.191 111.312C161.416 111.44 161.812 111.703 163.078 111.899L166.215 112.388L151.382 114.824L147.979 114.318C146.606 114.115 144.833 114.05 144.015 114.173C143.195 114.297 143.658 114.563 145.05 114.767L148.5 115.275L148.485 115.277L151.907 115.782L149.868 116.105C149.074 116.229 149.58 116.498 150.997 116.705C152.416 116.911 154.195 116.977 154.969 116.852L156.96 116.525L160.595 117.06L158.639 117.388C157.878 117.515 158.412 117.785 159.832 117.992C161.253 118.199 163.009 118.263 163.751 118.136L165.829 117.774C168.396 118.081 170.775 118.292 172.952 118.403C176.199 118.568 178.631 118.493 180.257 118.179C181.453 117.949 181.808 117.674 181.333 117.361ZM176.464 113.984C178.95 114.37 180.575 114.689 181.343 114.941C182.115 115.194 182.082 115.403 181.237 115.568C180.297 115.751 179.085 115.797 177.597 115.706C176.104 115.614 174.165 115.387 171.788 115.024L166.325 114.19L171.704 113.243L173.693 113.552L176.464 113.984ZM170.073 117.351C168.3 117.252 166.162 117.017 163.666 116.647L159.489 116.027L157.333 115.707L163.702 114.64L169.536 115.523C172.095 115.909 173.767 116.241 174.557 116.519C175.354 116.796 175.272 117.025 174.305 117.205C173.247 117.402 171.838 117.45 170.073 117.351Z" fill="#D97803"/>
<path d="M182.384 151.192C182.384 151.192 179.091 149.66 176.543 147.069C174.317 144.807 173.138 143.223 171.457 144.115C170.451 144.648 172.866 146.911 173.519 148.307C173.909 149.143 172.831 148.994 172.831 148.994C172.831 148.994 170.18 146.235 167.059 145.215C164.648 144.426 162.266 145.216 161.562 146.108C157.713 150.988 165.066 157.447 169.189 159.165C172.723 160.638 180.46 163.564 180.46 163.564L182.384 151.192Z" fill="#BBB1BA"/>
<path d="M180.598 146.659C180.598 146.659 216.145 164.161 221.281 160.263C226.416 156.365 230.718 137.753 233.655 130.865C235.273 127.071 240.797 119.58 248.494 121.504C256.191 123.429 256.691 132.318 255.916 136.76C255.124 141.296 244.804 168.417 243.135 170.983C240.457 175.098 233.651 190.362 215.509 182.322C204.955 177.644 173.728 165.172 173.728 165.172L180.598 146.659Z" fill="#5D639B"/>
<path d="M227.031 185.264C225.676 185.264 224.28 185.107 222.854 184.786C216.725 183.401 196.82 175.503 196.621 175.424L196.872 174.791C197.073 174.871 216.928 182.748 223.005 184.121C230.644 185.847 237.444 182.648 240.764 175.784C241.778 173.69 248.522 157.005 248.59 156.837L249.221 157.093C248.944 157.781 242.4 173.966 241.377 176.08C238.532 181.962 233.238 185.264 227.031 185.264Z" fill="#F2E1D1"/>
<path d="M219.137 161.963C218.661 161.963 218.176 161.885 217.699 161.719L200.14 155.636L200.363 154.993L217.922 161.075C219.731 161.703 221.685 160.855 222.464 159.106L232.094 133.341L232.732 133.58L223.095 159.364C222.368 160.995 220.805 161.963 219.137 161.963Z" fill="#F2E1D1"/>
<path d="M219.304 77.6257C219.304 77.6257 211.344 96.1191 217.169 100.231C222.995 104.343 235.474 98.4974 235.474 98.4974L241.339 82.9656L219.304 77.6257Z" fill="#BBB1BA"/>
<path d="M221.616 97.8403L218.978 110.819C218.978 110.819 230.42 116.797 234.338 111.746C235.178 109.945 235.78 97.1091 235.78 97.1091L221.616 97.8403Z" fill="#BBB1BA"/>
<path d="M220.11 69.5444C218.514 69.9757 214.431 77.6949 217.505 79.5378C220.58 81.3807 230.117 79.8035 230.26 81.6075C230.482 84.4123 231.78 88.1273 233.793 89.3637C233.975 93.5655 233.891 93.73 233.891 93.73C233.891 93.73 230.479 96.0227 234.026 99.4788C236.474 101.864 241.336 93.619 242.806 88.7562C243.809 85.4393 246.863 75.334 240.322 74.2174C239.918 72.1379 235.908 69.3935 230.813 70.5403C226.066 71.6093 222.966 68.7743 220.11 69.5444Z" fill="#4E508D"/>
<path d="M221.038 101.191C223.423 101.56 228.814 99.4797 228.814 99.4797L220.303 104.108C220.303 104.108 220.86 102.221 221.038 101.191Z" fill="#4E508D"/>
<path d="M218.933 86.2104C218.858 86.7566 218.466 87.1538 218.056 87.0983C217.646 87.0418 217.375 86.5541 217.45 86.0079C217.525 85.4618 217.917 85.0646 218.327 85.12C218.737 85.1755 219.007 85.6642 218.933 86.2104Z" fill="#4E508D"/>
<path d="M225.608 87.7048C225.534 88.2509 225.141 88.6481 224.732 88.5926C224.322 88.5371 224.05 88.0484 224.125 87.5023C224.2 86.9561 224.593 86.5589 225.002 86.6144C225.41 86.6709 225.682 87.1586 225.608 87.7048Z" fill="#4E508D"/>
<path d="M220.752 92.3593C220.732 92.3593 220.709 92.3573 220.688 92.3534C220.636 92.3437 219.428 92.1042 218.743 91.4792C218.047 90.8435 219.296 88.7202 220.466 87.0505C220.572 86.8967 220.785 86.8588 220.94 86.9668C221.094 87.0749 221.131 87.2871 221.023 87.4409C219.925 89.0083 219.081 90.6692 219.218 90.9953C219.654 91.3877 220.521 91.6262 220.817 91.6836C221.001 91.7196 221.123 91.8978 221.087 92.0828C221.056 92.2463 220.913 92.3593 220.752 92.3593Z" fill="#4E508D"/>
<path d="M232.764 90.0909C232.874 90.0899 234.002 88.1526 236.029 88.835C237.834 89.4425 237.462 92.5121 236.747 93.0875C234.534 94.87 232.639 94.464 232.639 94.464L232.764 90.0909Z" fill="#BBB1BA"/>
<path d="M236.015 92.3738C235.985 92.3738 235.954 92.3699 235.924 92.3612C235.741 92.3106 235.636 92.1227 235.687 91.9416C235.784 91.5911 235.764 91.338 235.626 91.191C235.317 90.861 234.454 90.9505 234.177 91.008C233.994 91.043 233.813 90.9272 233.774 90.7441C233.736 90.5601 233.854 90.38 234.038 90.3411C234.187 90.3099 235.499 90.0588 236.123 90.7237C236.435 91.0566 236.51 91.5278 236.344 92.1236C236.301 92.2755 236.164 92.3738 236.015 92.3738Z" fill="#4E508D"/>
<path d="M234.493 92.6445C234.487 92.6445 234.48 92.6435 234.473 92.6435C234.286 92.6318 234.142 92.4702 234.154 92.2823C234.165 92.1012 234.281 91.9873 234.514 91.7586C234.776 91.5016 235.172 91.1131 235.358 90.6702C235.429 90.4959 235.633 90.4141 235.804 90.4881C235.977 90.5611 236.059 90.7607 235.985 90.935C235.746 91.5035 235.292 91.9494 234.991 92.2453C234.913 92.3222 234.849 92.3826 234.811 92.4284C234.761 92.5549 234.636 92.6445 234.493 92.6445Z" fill="#4E508D"/>
<path d="M220.445 95.1231C219.598 95.1231 218.814 94.796 218.336 94.4767C218.18 94.3725 218.137 94.1613 218.241 94.0055C218.345 93.8488 218.557 93.8059 218.712 93.9101C218.806 93.9714 220.97 95.3675 222.408 93.3678C222.518 93.214 222.733 93.1809 222.883 93.29C223.036 93.4 223.071 93.6132 222.961 93.7651C222.227 94.7863 221.304 95.1231 220.445 95.1231Z" fill="#4E508D"/>
<path d="M215.164 109.376L218.978 106.386C218.978 106.386 222.555 108.858 226.091 109.581C230.626 110.509 235.884 108.344 235.884 108.344L238.667 112.055C238.667 112.055 228.462 116.076 225.885 115.56C223.307 115.045 215.164 109.376 215.164 109.376Z" fill="#5D639B"/>
<path d="M228.483 115.493C221.668 115.493 216.362 112.354 216.293 112.313L216.645 111.729C216.73 111.78 225.289 116.836 234.508 113.895L234.715 114.544C232.572 115.229 230.463 115.493 228.483 115.493Z" fill="#F2E1D1"/>
<path d="M238.876 125.136L238.317 124.746C238.377 124.661 244.321 116.333 252.819 118.01L252.688 118.679C244.615 117.089 238.933 125.056 238.876 125.136Z" fill="#F2E1D1"/>
</svg>
