<svg width="39" height="45" viewBox="0 0 39 45" fill="none" xmlns="http://www.w3.org/2000/svg">
<g id="exchange-06 1" clip-path="url(#clip0_1_176)">
<path id="Vector" d="M19.5002 44.2938H19.2702C14.1165 43.4438 9.43331 40.7879 6.05853 36.8012C2.68374 32.8145 0.837525 27.7571 0.850162 22.5338V7.46378C0.850162 7.08452 1.00082 6.72079 1.269 6.45261C1.53718 6.18444 1.9009 6.03378 2.28016 6.03378C9.07016 6.03378 13.7602 3.83378 18.7102 0.533778C18.9459 0.377675 19.2224 0.294434 19.5052 0.294434C19.7879 0.294434 20.0644 0.377675 20.3002 0.533778C25.2502 3.83378 29.9402 6.03378 36.7202 6.03378C37.0994 6.03378 37.4632 6.18444 37.7313 6.45261C37.9995 6.72079 38.1502 7.08452 38.1502 7.46378V22.5338C38.1632 27.7556 36.3184 32.8118 32.9456 36.7983C29.5728 40.7848 24.892 43.4417 19.7402 44.2938H19.5002Z" fill="url(#paint0_linear_1_176)"/>
<path id="Vector_2" d="M19.5001 34.7238C16.9472 34.7218 14.4521 33.963 12.3304 32.5432C10.2087 31.1235 8.55555 29.1065 7.57995 26.7473C6.60436 24.3882 6.35012 21.7927 6.84939 19.2891C7.34865 16.7854 8.579 14.486 10.3849 12.6815C12.1908 10.877 14.4911 9.64847 16.9952 9.15115C19.4992 8.65382 22.0944 8.91006 24.4529 9.88749C26.8113 10.8649 28.8269 12.5196 30.2451 14.6424C31.6632 16.7653 32.4201 19.2609 32.4201 21.8138C32.4175 25.2387 31.0551 28.5224 28.6324 30.9432C26.2097 33.364 22.925 34.7238 19.5001 34.7238Z" fill="#2C49BF"/>
<path id="Vector_3" d="M22.6502 25.5538C23.5349 24.8923 24.1888 23.969 24.5193 22.915C24.8498 21.861 24.84 20.7297 24.4915 19.6815C24.1429 18.6333 23.4732 17.7215 22.5773 17.0753C21.6814 16.4291 20.6048 16.0813 19.5002 16.0813C18.3956 16.0813 17.319 16.4291 16.4231 17.0753C15.5272 17.7215 14.8575 18.6333 14.509 19.6815C14.1604 20.7297 14.1507 21.861 14.4812 22.915C14.8116 23.969 15.4656 24.8923 16.3502 25.5538C13.6419 26.2333 11.2275 27.7739 9.47021 29.9438C10.6806 31.4373 12.2092 32.6417 13.9444 33.469C15.6797 34.2963 17.5778 34.7256 19.5002 34.7256C21.4226 34.7256 23.3207 34.2963 25.056 33.469C26.7913 32.6417 28.3199 31.4373 29.5302 29.9438C27.7744 27.7723 25.3594 26.2313 22.6502 25.5538Z" fill="#E6F3FF"/>
</g>
<defs>
<linearGradient id="paint0_linear_1_176" x1="1.23016" y1="34.5138" x2="36.3402" y2="6.59377" gradientUnits="userSpaceOnUse">
<stop stop-color="#326AF1"/>
<stop offset="1" stop-color="#4F94FB"/>
</linearGradient>
<clipPath id="clip0_1_176">
<rect width="37.3" height="44" fill="white" transform="translate(0.850098 0.293701)"/>
</clipPath>
</defs>
</svg>
