<svg width="30" height="30" viewBox="0 0 30 30" fill="none" xmlns="http://www.w3.org/2000/svg">
<g id="Frame">
<path id="Vector" d="M22.5 9.375V13.125M22.5 13.125V16.875M22.5 13.125H26.25M22.5 13.125H18.75M15.9375 7.96875C15.9375 9.08763 15.493 10.1607 14.7019 10.9519C13.9107 11.743 12.8376 12.1875 11.7188 12.1875C10.5999 12.1875 9.52681 11.743 8.73564 10.9519C7.94447 10.1607 7.5 9.08763 7.5 7.96875C7.5 6.84987 7.94447 5.77681 8.73564 4.98564C9.52681 4.19447 10.5999 3.75 11.7188 3.75C12.8376 3.75 13.9107 4.19447 14.7019 4.98564C15.493 5.77681 15.9375 6.84987 15.9375 7.96875ZM3.75 24.0438V23.9062C3.75 21.7928 4.58956 19.7659 6.08399 18.2715C7.57842 16.7771 9.60531 15.9375 11.7188 15.9375C13.8322 15.9375 15.8591 16.7771 17.3535 18.2715C18.8479 19.7659 19.6875 21.7928 19.6875 23.9062V24.0425C17.2818 25.4914 14.5258 26.2547 11.7175 26.25C8.80375 26.25 6.0775 25.4437 3.75 24.0425V24.0438Z" stroke="white" stroke-width="1.5" stroke-linecap="round" stroke-linejoin="round"/>
</g>
</svg>
