<svg width="20" height="20" viewBox="0 0 20 20" fill="none" xmlns="http://www.w3.org/2000/svg">
<path d="M13.3332 1.66663V4.99996M6.6665 1.66663V4.99996" stroke="white" stroke-linecap="round" stroke-linejoin="round"/>
<path d="M10.8333 3.33337H9.16667C6.02397 3.33337 4.45262 3.33337 3.47631 4.30968C2.5 5.286 2.5 6.85734 2.5 10V11.6667C2.5 14.8094 2.5 16.3808 3.47631 17.357C4.45262 18.3334 6.02397 18.3334 9.16667 18.3334H10.8333C13.976 18.3334 15.5474 18.3334 16.5237 17.357C17.5 16.3808 17.5 14.8094 17.5 11.6667V10C17.5 6.85734 17.5 5.286 16.5237 4.30968C15.5474 3.33337 13.976 3.33337 10.8333 3.33337Z" stroke="white" stroke-linecap="round" stroke-linejoin="round"/>
<path d="M2.5 8.33337H17.5" stroke="white" stroke-linecap="round" stroke-linejoin="round"/>
<path d="M9.99609 11.6666H10.0036M9.99609 15H10.0036M13.3257 11.6666H13.3332M6.6665 11.6666H6.67398M6.6665 15H6.67398" stroke="white" stroke-linecap="round" stroke-linejoin="round"/>
</svg>
