<svg width="137" height="294" viewBox="0 0 137 294" fill="none" xmlns="http://www.w3.org/2000/svg">
<mask id="mask0_113_16" style="mask-type:alpha" maskUnits="userSpaceOnUse" x="-116" y="41" width="211" height="211">
<circle cx="-10.422" cy="146.578" r="105.183" transform="rotate(35.1919 -10.422 146.578)" fill="url(#paint0_linear_113_16)"/>
</mask>
<g mask="url(#mask0_113_16)">
<g filter="url(#filter0_i_113_16)">
<circle cx="-10.422" cy="146.578" r="105.183" transform="rotate(35.1919 -10.422 146.578)" fill="#15072B"/>
</g>
<g filter="url(#filter1_f_113_16)">
<path d="M-40.8636 16.6854C-74.2539 61.9428 -89.3582 95.0975 21.5087 160.636C59.6983 187.568 92.6227 178.197 126.696 141.375C129.521 176.252 120.245 213.022 97.8929 244.718C49.4581 313.399 -42.0354 332.243 -106.464 286.808C-170.892 241.372 -183.858 148.862 -135.424 80.1808C-111.561 46.3424 -77.2446 24.6015 -40.8636 16.6854Z" fill="#5EEDD0"/>
</g>
</g>
<defs>
<filter id="filter0_i_113_16" x="-115.614" y="33.3857" width="210.384" height="218.384" filterUnits="userSpaceOnUse" color-interpolation-filters="sRGB">
<feFlood flood-opacity="0" result="BackgroundImageFix"/>
<feBlend mode="normal" in="SourceGraphic" in2="BackgroundImageFix" result="shape"/>
<feColorMatrix in="SourceAlpha" type="matrix" values="0 0 0 0 0 0 0 0 0 0 0 0 0 0 0 0 0 0 127 0" result="hardAlpha"/>
<feMorphology radius="5" operator="dilate" in="SourceAlpha" result="effect1_innerShadow_113_16"/>
<feOffset dy="-8"/>
<feGaussianBlur stdDeviation="9"/>
<feComposite in2="hardAlpha" operator="arithmetic" k2="-1" k3="1"/>
<feColorMatrix type="matrix" values="0 0 0 0 0 0 0 0 0 0 0 0 0 0 0 0 0 0 0.46 0"/>
<feBlend mode="normal" in2="shape" result="effect1_innerShadow_113_16"/>
</filter>
<filter id="filter1_f_113_16" x="-288.62" y="-107.214" width="539.709" height="542.688" filterUnits="userSpaceOnUse" color-interpolation-filters="sRGB">
<feFlood flood-opacity="0" result="BackgroundImageFix"/>
<feBlend mode="normal" in="SourceGraphic" in2="BackgroundImageFix" result="shape"/>
<feGaussianBlur stdDeviation="61.95" result="effect1_foregroundBlur_113_16"/>
</filter>
<linearGradient id="paint0_linear_113_16" x1="-22.5984" y1="79.996" x2="-10.422" y2="284.922" gradientUnits="userSpaceOnUse">
<stop stop-color="white"/>
<stop offset="1" stop-color="white"/>
</linearGradient>
</defs>
</svg>
