<svg width="42" height="37" viewBox="0 0 42 37" fill="none" xmlns="http://www.w3.org/2000/svg">
<path id="Vector" fill-rule="evenodd" clip-rule="evenodd" d="M26.2066 26.1573C25.5081 26.1573 24.8382 25.8763 24.3444 25.3761C23.8505 24.8759 23.573 24.1975 23.573 23.4901V20.7901C23.573 20.4402 23.6412 20.0937 23.7736 19.7706C23.9061 19.4474 24.1002 19.1539 24.3448 18.9069C24.5895 18.6599 24.8799 18.4642 25.1994 18.331C25.5188 18.1979 25.8611 18.1299 26.2066 18.131H42.0081V26.1573H26.2066ZM28.1777 20.2746C27.7882 20.2762 27.4079 20.3947 27.0848 20.615C26.7617 20.8354 26.5103 21.1477 26.3624 21.5126C26.2144 21.8776 26.1766 22.2787 26.2535 22.6654C26.3305 23.0522 26.5189 23.4071 26.7948 23.6855C27.0708 23.9639 27.4221 24.1532 27.8042 24.2296C28.1864 24.3059 28.5823 24.2659 28.942 24.1146C29.3017 23.9632 29.6091 23.7074 29.8253 23.3792C30.0415 23.0511 30.1569 22.6655 30.157 22.271C30.1613 22.0054 30.1132 21.7416 30.0155 21.495C29.9179 21.2485 29.7727 21.0242 29.5883 20.8352C29.404 20.6462 29.1843 20.4964 28.9421 20.3945C28.6999 20.2927 28.44 20.2408 28.1777 20.2419V20.2746ZM22.2562 20.8228V23.4573C22.2562 24.5184 22.6724 25.5361 23.4132 26.2864C24.1541 27.0367 25.1589 27.4582 26.2066 27.4582H39.3664V32.7928C39.3675 33.3178 39.2663 33.8379 39.0686 34.3233C38.871 34.8086 38.5808 35.2497 38.2146 35.6214C37.8484 35.993 37.4135 36.2878 36.9346 36.489C36.4558 36.6902 35.9425 36.7937 35.4241 36.7937H3.91806C2.87597 36.7851 1.87945 36.3597 1.14559 35.6104C0.411725 34.861 -3.48637e-05 33.8483 2.21403e-09 32.7928L2.21403e-09 7.42916C0.00852458 6.37373 0.428484 5.36447 1.1684 4.62122C1.90832 3.87797 2.90825 3.46094 3.95037 3.46097H16.6255L13.5395 4.77006H3.28794C2.76516 4.77006 2.26379 4.9804 1.89413 5.35479C1.52447 5.72918 1.31679 6.23696 1.31679 6.76643C1.31679 7.2959 1.52447 7.80368 1.89413 8.17807C2.26379 8.55246 2.76516 8.76279 3.28794 8.76279H39.3664V16.7973H26.2066C25.6882 16.7963 25.1747 16.8987 24.6954 17.0989C24.2162 17.2991 23.7807 17.593 23.4137 17.9639C23.0468 18.3347 22.7557 18.7753 22.5571 19.2602C22.3584 19.7452 22.2562 20.265 22.2562 20.7901V20.8228ZM10.502 7.38006L29.8257 0.793701L32.7905 7.38006H10.502ZM32.3139 3.46097H35.416C35.9628 3.46262 36.5032 3.57992 37.0026 3.80534C37.502 4.03077 37.9495 4.35936 38.3162 4.77006H32.9521L32.3139 3.46097Z" fill="url(#paint0_linear_1_180)"/>
<defs>
<linearGradient id="paint0_linear_1_180" x1="2.21403e-09" y1="18.7937" x2="42" y2="18.7937" gradientUnits="userSpaceOnUse">
<stop stop-color="#89CED6"/>
<stop offset="1" stop-color="#1FA1AE"/>
</linearGradient>
</defs>
</svg>
