<svg width="20" height="20" viewBox="0 0 20 20" fill="none" xmlns="http://www.w3.org/2000/svg">
<path d="M1.66666 5L7.42751 8.26414C9.55132 9.4675 10.4487 9.4675 12.5725 8.26414L18.3333 5" stroke="white" stroke-width="1.5" stroke-linejoin="round"/>
<path d="M1.6798 11.2297C1.73427 13.7844 1.76151 15.0616 2.70412 16.0079C3.64672 16.954 4.9586 16.9869 7.58235 17.0529C9.19941 17.0935 10.8006 17.0935 12.4177 17.0529C15.0414 16.9869 16.3532 16.954 17.2959 16.0079C18.2385 15.0616 18.2657 13.7844 18.3202 11.2297C18.3377 10.4083 18.3377 9.59177 18.3202 8.77035C18.2657 6.21574 18.2385 4.93843 17.2959 3.99224C16.3532 3.04605 15.0414 3.01309 12.4177 2.94716C10.8006 2.90653 9.19941 2.90653 7.58234 2.94715C4.9586 3.01307 3.64672 3.04603 2.70411 3.99223C1.76151 4.93842 1.73427 6.21573 1.67979 8.77035C1.66227 9.59177 1.66228 10.4083 1.6798 11.2297Z" stroke="white" stroke-width="1.5" stroke-linejoin="round"/>
</svg>
