<svg width="24" height="25" viewBox="0 0 24 25" fill="none" xmlns="http://www.w3.org/2000/svg">
<g id="Frame">
<path id="Vector" d="M21.75 7.64258V18.1426C21.75 18.7393 21.5129 19.3116 21.091 19.7336C20.669 20.1555 20.0967 20.3926 19.5 20.3926H4.5C3.90326 20.3926 3.33097 20.1555 2.90901 19.7336C2.48705 19.3116 2.25 18.7393 2.25 18.1426V7.64258M21.75 7.64258C21.75 7.04584 21.5129 6.47354 21.091 6.05159C20.669 5.62963 20.0967 5.39258 19.5 5.39258H4.5C3.90326 5.39258 3.33097 5.62963 2.90901 6.05159C2.48705 6.47354 2.25 7.04584 2.25 7.64258M21.75 7.64258V7.88558C21.75 8.26972 21.6517 8.64748 21.4644 8.98287C21.2771 9.31826 21.0071 9.60012 20.68 9.80158L13.18 14.4166C12.8252 14.6351 12.4167 14.7508 12 14.7508C11.5833 14.7508 11.1748 14.6351 10.82 14.4166L3.32 9.80258C2.99292 9.60111 2.72287 9.31926 2.53557 8.98387C2.34827 8.64848 2.24996 8.27072 2.25 7.88658V7.64258" stroke="#FF7C06" stroke-width="1.5" stroke-linecap="round" stroke-linejoin="round"/>
</g>
</svg>
