<svg width="21" height="20" viewBox="0 0 21 20" fill="none" xmlns="http://www.w3.org/2000/svg">
<path d="M18.4534 9.20419C18.7067 9.55944 18.8334 9.7371 18.8334 10C18.8334 10.2629 18.7067 10.4406 18.4534 10.7959C17.315 12.3922 14.4077 15.8334 10.5001 15.8334C6.5924 15.8334 3.68516 12.3922 2.54678 10.7959C2.29342 10.4406 2.16675 10.2629 2.16675 10C2.16675 9.7371 2.29342 9.55944 2.54678 9.20419C3.68516 7.60789 6.5924 4.16669 10.5001 4.16669C14.4077 4.16669 17.315 7.60789 18.4534 9.20419Z" stroke="white" stroke-width="1.5"/>
<path d="M13 10C13 8.61925 11.8807 7.5 10.5 7.5C9.11925 7.5 8 8.61925 8 10C8 11.3807 9.11925 12.5 10.5 12.5C11.8807 12.5 13 11.3807 13 10Z" stroke="white" stroke-width="1.5"/>
</svg>
