<svg width="1" height="215" viewBox="0 0 1 215" fill="none" xmlns="http://www.w3.org/2000/svg">
<line x1="0.5" y1="0.293701" x2="0.5" y2="6.2937" stroke="#606060"/>
<line x1="0.5" y1="11.2937" x2="0.5" y2="17.2937" stroke="#606060"/>
<line x1="0.5" y1="22.2937" x2="0.5" y2="28.2937" stroke="#606060"/>
<line x1="0.5" y1="33.2937" x2="0.5" y2="39.2937" stroke="#606060"/>
<line x1="0.5" y1="44.2937" x2="0.5" y2="50.2937" stroke="#606060"/>
<line x1="0.5" y1="55.2937" x2="0.5" y2="61.2937" stroke="#606060"/>
<line x1="0.5" y1="76.2937" x2="0.5" y2="82.2937" stroke="#606060"/>
<line x1="0.5" y1="66" x2="0.5" y2="72" stroke="#606060"/>
<line x1="0.5" y1="87.2937" x2="0.5" y2="93.2937" stroke="#606060"/>
<line x1="0.5" y1="98.2937" x2="0.5" y2="104.294" stroke="#606060"/>
<line x1="0.5" y1="109.294" x2="0.5" y2="115.294" stroke="#606060"/>
<line x1="0.5" y1="120.294" x2="0.5" y2="126.294" stroke="#606060"/>
<line x1="0.5" y1="131.294" x2="0.5" y2="137.294" stroke="#606060"/>
<line x1="0.5" y1="142.294" x2="0.5" y2="148.294" stroke="#606060"/>
<line x1="0.5" y1="153.294" x2="0.5" y2="159.294" stroke="#606060"/>
<line x1="0.5" y1="164.294" x2="0.5" y2="170.294" stroke="#606060"/>
<line x1="0.5" y1="175.294" x2="0.5" y2="181.294" stroke="#606060"/>
<line x1="0.5" y1="186.294" x2="0.5" y2="192.294" stroke="#606060"/>
<line x1="0.5" y1="197.294" x2="0.5" y2="203.294" stroke="#606060"/>
<line x1="0.5" y1="208.294" x2="0.5" y2="214.294" stroke="#606060"/>
</svg>
