<svg width="74" height="73" viewBox="0 0 74 73" fill="none" xmlns="http://www.w3.org/2000/svg">
<g id="Simplification" clip-path="url(#clip0_1_58)">
<path id="Vector" d="M37.7275 3.06718C38.4938 3.42389 38.4938 3.42389 39.2758 3.87907C39.57 4.04858 39.8642 4.21809 40.1673 4.39274C40.4796 4.57599 40.792 4.75924 41.1138 4.94803C41.4377 5.13436 41.7616 5.32069 42.0953 5.51266C43.7744 6.4788 45.4412 7.46344 47.1009 8.46146C47.4099 8.64503 47.7189 8.82859 48.0373 9.01771C48.6285 9.36949 49.217 9.72565 49.8025 10.0865C50.0689 10.2445 50.3353 10.4026 50.6097 10.5653C50.8418 10.7064 51.0738 10.8475 51.3129 10.9928C51.997 11.2993 51.997 11.2993 52.7508 11.0031C53.1547 10.7938 53.5545 10.5761 53.9458 10.3445C54.8423 9.98044 55.5917 10.0111 56.5479 10.0984C57.1182 10.9422 57.1182 10.9422 57.1538 11.7508C56.7327 12.9046 56.1443 13.1911 55.0965 13.7876C54.5518 14.0359 54.5518 14.0359 53.9814 14.0359C53.9843 14.3536 53.9843 14.3536 53.9872 14.6778C54.0044 16.6764 54.0174 18.6751 54.0258 20.6738C54.0302 21.7013 54.0363 22.7287 54.046 23.7561C54.0553 24.7482 54.0604 25.7402 54.0626 26.7323C54.065 27.2939 54.0716 27.8555 54.0784 28.4171C54.0785 28.9322 54.0785 28.9322 54.0786 29.4576C54.0814 29.9101 54.0814 29.9101 54.0843 30.3717C53.9383 31.5359 53.5073 32.3043 52.5706 33.0268C52.3595 33.1457 52.1483 33.2647 51.9308 33.3872C51.6883 33.5262 51.4458 33.6651 51.196 33.8082C50.933 33.9543 50.6701 34.1003 50.3992 34.2508C50.1269 34.4057 49.8545 34.5606 49.574 34.7202C48.9841 35.0553 48.3934 35.3889 47.8019 35.7212C46.635 36.377 45.4719 37.0392 44.3091 37.7019C43.484 38.1721 42.6585 38.6414 41.8322 39.1093C41.5322 39.2792 41.2323 39.4491 40.9233 39.6242C40.6571 39.7747 40.3909 39.9252 40.1166 40.0803C39.5953 40.3825 39.0861 40.7051 38.583 41.0359C38.3745 41.8919 38.3745 41.8919 38.28 42.864C38.0716 44.6341 38.0716 44.6341 37.4424 45.2547C36.5869 45.325 36.5869 45.325 35.7314 45.2547C35.1611 44.6922 35.1611 44.6922 35.1054 43.8374C35.1121 43.5046 35.1187 43.1718 35.1255 42.8289C35.1306 42.4946 35.1358 42.1604 35.1411 41.816C35.1477 41.5585 35.1543 41.3011 35.1611 41.0359C34.9606 40.9621 34.7601 40.8883 34.5536 40.8122C33.6757 40.4487 32.8764 40.0192 32.05 39.5528C31.7232 39.3686 31.3964 39.1845 31.0596 38.9948C30.7099 38.7963 30.3602 38.5978 30.0105 38.3992C29.6526 38.1966 29.2947 37.9941 28.9368 37.7915C26.7601 36.5573 24.5916 35.3098 22.436 34.0398C22.082 33.8319 22.082 33.8319 21.7208 33.6197C21.5062 33.4923 21.2916 33.3648 21.0704 33.2334C20.8853 33.1236 20.7002 33.0138 20.5094 32.9007C20.0479 32.5984 20.0479 32.5984 19.4775 32.0359C19.4173 31.307 19.4173 31.307 19.4319 30.3723C19.4354 30.0231 19.4389 29.6738 19.4426 29.314C19.4456 29.1267 19.4485 28.9395 19.4516 28.7466C19.4626 27.9589 19.4632 27.1713 19.4644 26.3836C19.4666 24.9168 19.4727 23.4504 19.498 21.9838C19.5152 20.9636 19.5185 19.9441 19.5126 18.9237C19.513 18.5357 19.5185 18.1477 19.5293 17.7598C19.5612 16.5619 19.5527 15.4665 19.1924 14.3172C18.4931 13.6741 17.8633 13.3184 16.9881 12.945C16.3408 12.6297 16.3408 12.6297 15.9844 11.7332C16.0557 10.9422 16.0557 10.9422 16.626 10.0984C17.8637 9.93087 18.6248 10.0397 19.6558 10.6961C20.5372 11.3244 20.5372 11.3244 21.252 11.0498C22.2745 10.5477 23.2756 10.0168 24.2717 9.46561C24.4902 9.34538 24.7086 9.22515 24.9337 9.10128C27.4775 7.6938 29.993 6.23826 32.509 4.78324C32.7712 4.63324 33.0334 4.48323 33.3036 4.32868C33.7427 4.07281 34.1777 3.80977 34.6049 3.53492C35.7915 2.78676 36.3768 2.73824 37.7275 3.06718ZM34.299 7.34745C34.1328 7.44199 33.9667 7.53654 33.7955 7.63395C33.2632 7.93756 32.7329 8.24446 32.2026 8.55155C31.8571 8.74953 31.5114 8.94729 31.1656 9.14481C30.4737 9.54035 29.7825 9.93708 29.0918 10.3346C27.4145 11.2985 25.7269 12.2447 24.04 13.1922C24.9973 13.981 25.9525 14.6254 27.0442 15.2192C27.3458 15.3843 27.6474 15.5494 27.9582 15.7196C28.2708 15.8891 28.5834 16.0586 28.9055 16.2332C29.5209 16.5687 30.1362 16.9045 30.7512 17.2406C31.0556 17.4055 31.36 17.5703 31.6737 17.7401C32.2997 18.0899 32.9178 18.4537 33.528 18.8297C33.8255 19.0123 34.1229 19.1948 34.4293 19.383C34.6938 19.5507 34.9582 19.7185 35.2307 19.8913C36.2247 20.3114 36.6966 20.2392 37.7275 19.9422C38.556 19.5649 38.556 19.5649 39.3761 19.071C39.6851 18.8928 39.9941 18.7146 40.3125 18.531C40.6357 18.3412 40.959 18.1514 41.292 17.9558C41.6254 17.7626 41.959 17.5695 42.2927 17.3768C42.9466 16.9988 43.5997 16.6195 44.2524 16.2395C45.3631 15.5949 46.4804 14.9624 47.6011 14.3348C47.9047 14.164 48.2083 13.9932 48.5211 13.8173C48.8244 13.6471 48.8244 13.6471 49.1338 13.4734C48.2572 12.795 47.3467 12.2396 46.3802 11.6936C46.0649 11.5149 45.7495 11.3362 45.4245 11.152C45.0926 10.9649 44.7607 10.7777 44.4287 10.5906C43.7841 10.2259 43.1395 9.8612 42.495 9.49637C42.1778 9.31782 41.8605 9.13926 41.5337 8.9553C40.8905 8.58853 40.2512 8.21519 39.6156 7.83579C39.3131 7.65579 39.0105 7.47578 38.6989 7.29032C38.4292 7.12726 38.1596 6.96421 37.8818 6.79621C36.4305 6.08711 35.5924 6.60409 34.299 7.34745ZM22.6143 16.2859C22.5199 18.2471 22.4552 20.2076 22.4106 22.1705C22.392 22.8374 22.3668 23.5041 22.3346 24.1705C21.997 27.8982 21.997 27.8982 23.3093 31.2153C24.1163 31.709 24.8872 32.0752 25.7804 32.3901C26.7146 32.7499 27.5445 33.2815 28.3998 33.7926C28.7471 33.9902 29.095 34.1867 29.4435 34.3821C30.1541 34.7815 30.864 35.1822 31.5733 35.584C31.9174 35.778 32.2616 35.9719 32.6059 36.1657C32.9123 36.3384 33.2187 36.5111 33.5344 36.6891C34.2995 37.1231 34.2995 37.1231 35.1611 37.3797C35.2263 35.408 35.2712 33.4367 35.3021 31.4642C35.315 30.7936 35.3325 30.123 35.3547 29.4526C35.3859 28.4876 35.4004 27.5235 35.4118 26.5581C35.425 26.2593 35.4383 25.9604 35.4519 25.6524C35.4702 24.0637 35.4702 24.0637 34.6335 22.7758C33.9729 22.3336 33.3117 21.9749 32.5947 21.6297C32.2946 21.4545 31.9944 21.2794 31.6852 21.099C31.4145 20.9518 31.1438 20.8046 30.8649 20.653C30.5618 20.4871 30.2587 20.3213 29.9464 20.1504C29.4841 19.8994 29.4841 19.8994 29.0125 19.6433C25.5433 17.7546 25.5433 17.7546 24.1392 16.8671C23.2907 16.2367 23.2907 16.2367 22.6143 16.2859ZM49.0803 16.8286C48.6128 17.0951 48.6128 17.0951 48.1357 17.367C47.8887 17.5084 47.8887 17.5084 47.6367 17.6526C47.1559 17.9279 46.6745 18.2023 46.1931 18.4766C45.7065 18.7543 45.22 19.0324 44.7407 19.3221C43.7906 19.8901 42.8638 20.3438 41.8251 20.7355C40.4582 21.2968 39.21 21.8475 38.2979 23.0359C37.5088 25.3761 37.8442 27.964 37.9949 30.3836C38.0192 31.0617 38.0413 31.74 38.0611 32.4182C38.1144 34.0738 38.1952 35.7264 38.2979 37.3797C38.6848 37.1608 38.6848 37.1608 39.0797 36.9375C41.2082 35.7351 43.3432 34.5462 45.4925 33.3801C45.9075 33.1539 46.3182 32.9197 46.7244 32.6786C47.4229 32.3172 47.4229 32.3172 48.3351 32.0486C49.4974 31.6215 50.0627 31.3106 50.8447 30.3484C51.4433 27.9953 51.1629 25.4528 51.0586 23.0535C51.0414 22.3715 51.0258 21.6894 51.0118 21.0073C50.9742 19.3389 50.917 17.672 50.8447 16.0047C50.235 16.0047 49.5832 16.5416 49.0803 16.8286Z" fill="url(#paint0_linear_1_58)"/>
<path id="Vector_2" d="M29.2086 48.2079C34.0997 48.946 38.7977 48.6947 43.6966 48.0863C49.9451 47.3289 49.9451 47.3289 51.7538 48.2606C52.5529 48.9086 52.9994 49.3853 53.4112 50.3172C53.4112 50.5957 53.4112 50.8741 53.4112 51.161C53.7545 51.06 53.7545 51.06 54.1047 50.9569C56.6712 50.2161 59.2523 49.5773 61.8591 48.9898C62.5252 48.8391 63.1904 48.685 63.8556 48.5309C64.2857 48.4332 64.7159 48.3358 65.1461 48.2386C65.3416 48.1929 65.5371 48.1472 65.7385 48.1002C67.8534 47.6312 69.4426 47.6056 71.3761 48.6297C73.0402 50.0926 73.0402 50.0926 73.155 51.3324C73.2268 54.3316 73.2268 54.3316 71.9464 55.661C70.6788 56.5831 69.4278 57.1553 67.9665 57.6902C67.7476 57.7723 67.5288 57.8544 67.3033 57.939C66.5883 58.207 65.8722 58.4721 65.1561 58.7372C64.1455 59.1146 63.1354 59.4933 62.1252 59.872C61.8709 59.9672 61.6165 60.0623 61.3544 60.1603C59.7499 60.7617 58.1514 61.3761 56.558 62.0056C56.3587 62.0843 56.1595 62.163 55.9542 62.244C55.561 62.3993 55.1677 62.5547 54.7745 62.71C51.667 63.9353 48.5482 65.0916 45.3734 66.1375C45.0566 66.2419 44.7399 66.3463 44.4135 66.4538C42.4838 67.0748 40.7289 67.5238 38.6827 67.4742C38.3735 67.4678 38.0642 67.4614 37.7456 67.4548C37.4158 67.4472 37.0861 67.4396 36.7463 67.4317C36.0436 67.4213 35.341 67.4115 34.6383 67.4021C33.5336 67.3864 32.4293 67.3679 31.3248 67.3404C30.2566 67.3149 29.1888 67.3019 28.1203 67.2911C27.79 67.2801 27.4597 67.269 27.1193 67.2576C25.4851 67.1965 25.4851 67.1965 24.1025 67.9131C23.7159 68.4352 23.7159 68.4352 23.4445 68.9871C23.1847 69.4422 23.1847 69.4422 22.454 69.7586C21.7589 69.7235 21.7589 69.7235 21.0995 69.4247C20.6183 68.8797 20.6183 68.8797 20.5318 68.1042C20.6926 66.4086 21.6271 65.2069 22.8995 64.0985C24.1853 63.6965 25.3778 63.7612 26.7146 63.8359C27.2747 63.8467 27.8349 63.8574 28.395 63.8679C29.1765 63.8863 29.9571 63.919 30.7381 63.9516C37.6271 64.3857 37.6271 64.3857 44.2862 62.9735C44.6874 62.8336 45.0889 62.6949 45.4908 62.5572C46.8504 62.0848 48.1971 61.5816 49.5438 61.075C50.0376 60.8909 50.5315 60.7067 51.0254 60.5226C54.6808 59.1552 58.3182 57.7432 61.9481 56.3114C62.1901 56.2159 62.4322 56.1205 62.6815 56.0221C65.027 55.0955 67.3672 54.1671 69.6651 53.1297C69.6651 52.5729 69.6651 52.016 69.6651 51.4422C67.7762 51.0076 66.2171 51.3856 64.353 51.8224C64.0371 51.8943 63.7212 51.9663 63.3957 52.0405C62.7297 52.1934 62.0642 52.3481 61.399 52.5045C60.3836 52.7421 59.3663 52.9708 58.3486 53.1989C57.7003 53.3489 57.0522 53.4994 56.4043 53.6505C55.9497 53.7517 55.9497 53.7517 55.486 53.8549C53.7442 54.2733 52.7075 54.7189 51.4152 55.9422C50.8231 56.2772 50.8231 56.2772 50.2834 56.5025C50.0766 56.5895 49.8699 56.6765 49.6568 56.7661C49.4372 56.8539 49.2176 56.9417 48.9913 57.0321C48.7587 57.1265 48.526 57.221 48.2863 57.3183C46.4477 58.0481 44.5843 58.6945 42.7001 59.2997C42.4461 59.3824 42.1921 59.4652 41.9304 59.5506C40.247 60.0725 38.6329 60.3363 36.8722 60.4422C36.296 59.6772 35.9947 59.264 36.088 58.2977C36.6428 57.5551 36.8065 57.5 37.6642 57.2419C37.8947 57.1706 38.1252 57.0992 38.3627 57.0258C38.6236 56.9466 38.8846 56.8675 39.1534 56.786C40.4201 56.3855 41.6848 55.9792 42.9496 55.5731C43.2765 55.4703 43.6035 55.3675 43.9404 55.2616C46.1619 54.5436 48.2137 53.6554 50.2745 52.5672C50.1804 52.1032 50.0863 51.6391 49.9894 51.161C47.6026 51.0964 45.2997 51.3057 42.9318 51.5829C37.8738 52.1282 33.1059 52.2272 28.0742 51.465C22.5266 50.6557 17.1387 50.7939 12.3487 53.9735C8.58242 56.9674 6.69676 61.3744 4.70529 65.5943C4.43133 66.1729 4.15457 66.7502 3.8776 67.3274C3.79561 67.5037 3.71362 67.68 3.62915 67.8617C3.19239 68.7704 2.95478 69.1503 2.08312 69.7235C0.498923 69.5672 0.498923 69.5672 0.0870307 69.161C-0.0490091 67.586 0.301092 66.473 1.00488 65.0883C1.10074 64.8931 1.1966 64.6979 1.29536 64.4968C1.49871 64.0849 1.70397 63.6738 1.91103 63.2637C2.22128 62.6483 2.52468 62.0299 2.8272 61.4107C5.58618 55.8283 8.9626 50.77 15.2003 48.6297C19.6652 47.1928 24.6293 47.5117 29.2086 48.2079Z" fill="url(#paint1_linear_1_58)"/>
<path id="Vector_3" d="M65.1023 5.31723C65.6726 6.16098 65.6726 6.16098 65.6492 6.85312C65.0615 8.45644 63.0076 9.25507 61.5913 10.0985C60.7069 10.4231 60.2808 10.4125 59.3992 10.0985C58.8289 9.53598 58.8289 9.53598 58.6328 8.76254C58.8679 7.66621 59.0732 7.57369 59.9873 6.96957C60.4542 6.69601 60.9235 6.42633 61.3953 6.16098C61.5783 6.04025 61.7614 5.91952 61.95 5.79513C63.0891 5.06209 63.8056 4.87107 65.1023 5.31723Z" fill="url(#paint2_linear_1_58)"/>
<path id="Vector_4" d="M9.42912 5.07113C10.5111 5.35947 11.3664 5.84477 12.2952 6.44222C12.4619 6.54591 12.6286 6.6496 12.8003 6.75643C13.9981 7.50661 13.9981 7.50661 14.3447 7.84847C14.4741 9.31617 14.4741 9.31617 14.0239 10.0809C13.2022 10.5402 12.6829 10.3178 11.7783 10.0985C11.1062 9.74774 10.4876 9.39717 9.85352 8.99105C9.68921 8.88972 9.5249 8.78839 9.35561 8.68398C8.67355 8.25824 8.07337 7.85052 7.50098 7.28597C7.55444 6.44222 7.55444 6.44222 7.78613 5.59847C8.6416 5.03597 8.6416 5.03597 9.42912 5.07113Z" fill="url(#paint3_linear_1_58)"/>
<path id="Vector_5" d="M61.3954 29.2234C62.0525 29.5766 62.6743 29.9344 63.3024 30.3309C63.468 30.4322 63.6336 30.5335 63.8042 30.6379C64.4919 31.0637 65.0969 31.468 65.6728 32.0359C65.6193 32.8797 65.6193 32.8797 65.3876 33.7234C64.5322 34.2859 64.5322 34.2859 63.7446 34.2508C62.6627 33.9624 61.8074 33.4771 60.8786 32.8797C60.6286 32.7242 60.6286 32.7242 60.3735 32.5655C59.1757 31.8153 59.1757 31.8153 58.829 31.4734C58.7399 30.6649 58.7399 30.6649 58.829 29.7859C59.6739 28.8292 60.2152 28.8824 61.3954 29.2234Z" fill="url(#paint4_linear_1_58)"/>
<path id="Vector_6" d="M13.7744 29.2234C14.3447 29.7859 14.3447 29.7859 14.5408 30.5594C14.3056 31.6557 14.1004 31.7482 13.1863 32.3523C12.7194 32.6259 12.2501 32.8956 11.7783 33.1609C11.5953 33.2817 11.4122 33.4024 11.2236 33.5268C10.3767 34.0718 9.85737 34.2873 8.83765 34.2684C8.07129 34.0047 8.07129 34.0047 7.50098 33.1609C7.52437 32.4688 7.52437 32.4688 7.78613 31.7547C9.29096 30.3851 11.673 28.475 13.7744 29.2234Z" fill="url(#paint5_linear_1_58)"/>
<path id="Vector_7" d="M65.37 18.202C65.6631 18.1985 65.9563 18.1951 66.2583 18.1915C66.6782 18.1907 66.6782 18.1907 67.1066 18.1899C67.3646 18.1887 67.6226 18.1876 67.8884 18.1864C68.5245 18.2547 68.5245 18.2547 69.0949 18.8172C69.1661 19.661 69.1661 19.661 69.0949 20.5047C68.2412 21.3467 67.4395 21.1495 66.2723 21.1579C65.9804 21.1569 65.6885 21.156 65.3878 21.1551C64.95 21.1619 64.95 21.1619 64.5034 21.1688C64.0854 21.1691 64.0854 21.1691 63.6591 21.1694C63.4029 21.1702 63.1466 21.1711 62.8827 21.1719C62.57 21.1201 62.57 21.1201 62.2511 21.0672C61.6808 20.2235 61.6808 20.2235 61.7699 19.3446C62.1841 17.6364 63.8462 18.2029 65.37 18.202Z" fill="url(#paint6_linear_1_58)"/>
<path id="Vector_8" d="M6.90146 18.1641C7.19332 18.165 7.48518 18.1659 7.78589 18.1668C8.07775 18.1623 8.36961 18.1578 8.67032 18.1531C8.94895 18.1529 9.22758 18.1527 9.51465 18.1525C9.77085 18.1517 10.0271 18.1509 10.291 18.15C10.6037 18.2018 10.6037 18.2018 10.9226 18.2547C11.4929 19.0985 11.4929 19.0985 11.4038 19.9774C11.2078 20.786 11.2078 20.786 10.9226 21.0672C9.88493 21.138 8.84358 21.1193 7.80371 21.1199C7.51056 21.1234 7.21741 21.1268 6.91538 21.1304C6.49551 21.1312 6.49551 21.1312 6.06715 21.132C5.68012 21.1338 5.68012 21.1338 5.28527 21.1355C4.64917 21.0672 4.64917 21.0672 4.07886 20.5047C4.00757 19.661 4.00757 19.661 4.07886 18.8172C4.93253 17.9752 5.73417 18.1724 6.90146 18.1641Z" fill="url(#paint7_linear_1_58)"/>
</g>
<defs>
<linearGradient id="paint0_linear_1_58" x1="15.9844" y1="24.0904" x2="57.1538" y2="24.0904" gradientUnits="userSpaceOnUse">
<stop stop-color="#00F5A0"/>
<stop offset="1" stop-color="#00D9F5"/>
</linearGradient>
<linearGradient id="paint1_linear_1_58" x1="0.0581055" y1="58.6485" x2="73.1799" y2="58.6485" gradientUnits="userSpaceOnUse">
<stop stop-color="#00F5A0"/>
<stop offset="1" stop-color="#00D9F5"/>
</linearGradient>
<linearGradient id="paint2_linear_1_58" x1="58.6328" y1="7.70832" x2="65.6564" y2="7.70832" gradientUnits="userSpaceOnUse">
<stop stop-color="#00F5A0"/>
<stop offset="1" stop-color="#00D9F5"/>
</linearGradient>
<linearGradient id="paint3_linear_1_58" x1="7.50098" y1="7.70409" x2="14.4193" y2="7.70409" gradientUnits="userSpaceOnUse">
<stop stop-color="#00F5A0"/>
<stop offset="1" stop-color="#00D9F5"/>
</linearGradient>
<linearGradient id="paint4_linear_1_58" x1="58.7622" y1="31.631" x2="65.6728" y2="31.631" gradientUnits="userSpaceOnUse">
<stop stop-color="#00F5A0"/>
<stop offset="1" stop-color="#00D9F5"/>
</linearGradient>
<linearGradient id="paint5_linear_1_58" x1="7.50098" y1="31.6623" x2="14.5408" y2="31.6623" gradientUnits="userSpaceOnUse">
<stop stop-color="#00F5A0"/>
<stop offset="1" stop-color="#00D9F5"/>
</linearGradient>
<linearGradient id="paint6_linear_1_58" x1="61.7266" y1="19.6424" x2="69.1483" y2="19.6424" gradientUnits="userSpaceOnUse">
<stop stop-color="#00F5A0"/>
<stop offset="1" stop-color="#00D9F5"/>
</linearGradient>
<linearGradient id="paint7_linear_1_58" x1="4.02539" y1="19.6426" x2="11.4471" y2="19.6426" gradientUnits="userSpaceOnUse">
<stop stop-color="#00F5A0"/>
<stop offset="1" stop-color="#00D9F5"/>
</linearGradient>
<clipPath id="clip0_1_58">
<rect width="73" height="72" fill="white" transform="translate(0.0869141 0.2547)"/>
</clipPath>
</defs>
</svg>
