<svg width="21" height="20" viewBox="0 0 21 20" fill="none" xmlns="http://www.w3.org/2000/svg">
<path d="M12.5759 12.9167H12.5834M8.41675 12.9167H8.42422" stroke="white" stroke-width="1.5" stroke-linecap="round" stroke-linejoin="round"/>
<path d="M4.05643 15.7039C4.24383 17.0958 5.39669 18.1862 6.79964 18.2507C7.98014 18.305 9.17934 18.3333 10.4999 18.3333C11.8205 18.3333 13.0197 18.305 14.2002 18.2507C15.6032 18.1862 16.756 17.0958 16.9434 15.7039C17.0658 14.7956 17.1666 13.8647 17.1666 12.9167C17.1666 11.9687 17.0658 11.0378 16.9434 10.1294C16.756 8.7375 15.6032 7.64707 14.2002 7.58257C13.0197 7.52831 11.8205 7.5 10.4999 7.5C9.17934 7.5 7.98014 7.52831 6.79964 7.58257C5.39669 7.64707 4.24383 8.7375 4.05643 10.1294C3.93413 11.0378 3.83325 11.9687 3.83325 12.9167C3.83325 13.8647 3.93413 14.7956 4.05643 15.7039Z" stroke="white" stroke-width="1.5"/>
<path d="M6.75 7.50002V5.41669C6.75 3.34562 8.42893 1.66669 10.5 1.66669C12.5711 1.66669 14.25 3.34562 14.25 5.41669V7.50002" stroke="white" stroke-width="1.5" stroke-linecap="round" stroke-linejoin="round"/>
</svg>
