<svg width="20" height="21" viewBox="0 0 20 21" fill="none" xmlns="http://www.w3.org/2000/svg">
<g id="Frame">
<path id="Vector" d="M1.875 6.51758C1.875 13.4209 7.47167 19.0176 14.375 19.0176H16.25C16.7473 19.0176 17.2242 18.82 17.5758 18.4684C17.9275 18.1168 18.125 17.6399 18.125 17.1426V15.9992C18.125 15.5692 17.8325 15.1942 17.415 15.0901L13.7292 14.1684C13.3625 14.0767 12.9775 14.2142 12.7517 14.5159L11.9433 15.5934C11.7083 15.9067 11.3025 16.0451 10.935 15.9101C9.57073 15.4085 8.33179 14.6164 7.30398 13.5886C6.27618 12.5608 5.48406 11.3218 4.9825 9.95758C4.8475 9.59008 4.98583 9.18424 5.29917 8.94924L6.37667 8.14091C6.67917 7.91508 6.81583 7.52924 6.72417 7.16341L5.8025 3.47758C5.75178 3.27482 5.63477 3.09483 5.47004 2.96619C5.30532 2.83755 5.10233 2.76765 4.89333 2.76758H3.75C3.25272 2.76758 2.77581 2.96512 2.42417 3.31675C2.07254 3.66838 1.875 4.1453 1.875 4.64258V6.51758Z" fill="#FF7C06"/>
</g>
</svg>
