<svg width="41" height="40" viewBox="0 0 41 40" fill="none" xmlns="http://www.w3.org/2000/svg">
<g clip-path="url(#clip0_95_158)">
<path d="M9.87064 13.1356H2.14859C1.81305 13.1356 1.54102 12.8636 1.54102 12.528V10.8234C1.54102 8.35544 3.54172 6.35474 6.0097 6.35474C8.47767 6.35474 10.4784 8.35544 10.4784 10.8234V12.528C10.4782 12.8636 10.2063 13.1356 9.87064 13.1356Z" fill="#2AF595"/>
<path d="M14.4032 28.266C13.5375 27.6944 12.9814 27.0393 12.7501 26.3186C11.2931 25.6999 10.3525 24.2521 10.3525 22.625C10.3525 20.4231 12.0878 18.6316 14.2208 18.6316H19.144C21.2769 18.6316 23.0123 20.4231 23.0123 22.625C23.0123 24.827 21.277 26.6184 19.144 26.6184H15.3263C15.2935 26.9479 15.3068 27.291 15.3658 27.6386L15.5427 28.6822C15.5671 28.8259 15.4083 28.9294 15.2866 28.8491L14.4032 28.266Z" fill="#FDA153"/>
<path d="M23.0123 22.625C23.0123 20.4231 21.277 18.6316 19.144 18.6316H14.2209C13.6656 18.6316 13.1379 18.7539 12.6602 18.9724C12.8657 22.2783 15.674 24.8607 19.0212 24.8607H22.3477C22.7671 24.2223 23.0123 23.4527 23.0123 22.625Z" fill="#E6700B"/>
<path d="M24.5524 25.4206C24.6756 24.8902 24.7116 24.3696 24.6595 23.8727H19.8797C17.1918 23.8727 14.9487 21.7382 14.9078 19.0506C14.8661 16.3151 17.0792 14.0764 19.8053 14.0764H25.9841C28.6777 14.0764 30.9189 16.2223 30.9504 18.9157C30.9742 20.9371 29.7761 22.7417 27.9101 23.507C27.5084 24.7234 26.3656 25.5906 25.4755 26.1046L24.5585 26.6342C24.4322 26.7071 24.2798 26.5942 24.3127 26.4521L24.5524 25.4206Z" fill="#81FBC1"/>
<path d="M18.9113 20.3811C18.8696 17.6456 21.0827 15.407 23.8088 15.407H29.38C28.4872 14.5812 27.2892 14.0764 25.9841 14.0764H19.8053C17.0792 14.0764 14.8661 16.3151 14.9078 19.0506C14.9488 21.7382 17.1918 23.8727 19.8797 23.8727H20.4836C19.5369 22.9982 18.9325 21.7633 18.9113 20.3811Z" fill="#28CF80"/>
<path d="M38.815 13.1356H31.0929C30.7574 13.1356 30.4854 12.8636 30.4854 12.528V10.8234C30.4854 8.35544 32.4861 6.35474 34.954 6.35474C37.422 6.35474 39.4227 8.35544 39.4227 10.8234V12.528C39.4226 12.8636 39.1505 13.1356 38.815 13.1356Z" fill="#FFCF59"/>
<path d="M9.87064 37.0051H2.14859C1.81305 37.0051 1.54102 36.733 1.54102 36.3974V34.6928C1.54102 32.2248 3.54172 30.2241 6.0097 30.2241C8.47767 30.2241 10.4784 32.2248 10.4784 34.6928V36.3974C10.4782 36.733 10.2063 37.0051 9.87064 37.0051Z" fill="#FDA153"/>
<path d="M38.815 37.0051H31.0929C30.7574 37.0051 30.4854 36.733 30.4854 36.3974V34.6928C30.4854 32.2248 32.4861 30.2241 34.954 30.2241C37.422 30.2241 39.4227 32.2248 39.4227 34.6928V36.3974C39.4226 36.733 39.1505 37.0051 38.815 37.0051Z" fill="#31D2F7"/>
<path d="M4.97493 12.528V10.8234C4.97493 8.96396 6.11095 7.37021 7.72665 6.69708C7.19798 6.47685 6.61814 6.35474 6.0097 6.35474C3.54172 6.35474 1.54102 8.35544 1.54102 10.8234V12.528C1.54102 12.8636 1.81305 13.1356 2.14867 13.1356H5.58251C5.24696 13.1356 4.97493 12.8636 4.97493 12.528Z" fill="#21B870"/>
<path d="M33.9193 12.528V10.8234C33.9193 8.96396 35.0553 7.37021 36.671 6.69708C36.1423 6.47685 35.5625 6.35474 34.954 6.35474C32.4861 6.35474 30.4854 8.35544 30.4854 10.8234V12.528C30.4854 12.8636 30.7574 13.1356 31.093 13.1356H34.5268C34.1913 13.1356 33.9193 12.8636 33.9193 12.528Z" fill="#FFB55C"/>
<path d="M4.97493 36.3974V34.6928C4.97493 32.8333 6.11095 31.2395 7.72665 30.5665C7.19798 30.3462 6.61814 30.2241 6.0097 30.2241C3.54172 30.2241 1.54102 32.2248 1.54102 34.6928V36.3974C1.54102 36.733 1.81305 37.0051 2.14867 37.0051H5.58251C5.24696 37.0051 4.97493 36.733 4.97493 36.3974Z" fill="#E6700B"/>
<path d="M33.9193 36.3974V34.6928C33.9193 32.8333 35.0553 31.2395 36.671 30.5665C36.1423 30.3462 35.5625 30.2241 34.954 30.2241C32.4861 30.2241 30.4854 32.2248 30.4854 34.6928V36.3974C30.4854 36.733 30.7574 37.0051 31.093 37.0051H34.5268C34.1913 37.0051 33.9193 36.733 33.9193 36.3974Z" fill="#13ACE8"/>
<path d="M19.3861 39.9843C19.3737 39.9843 19.3612 39.984 19.3487 39.9832C18.5754 39.9393 17.7984 39.8499 17.039 39.7173C16.685 39.6555 16.4481 39.3184 16.5099 38.9643C16.5718 38.6102 16.9082 38.3732 17.2629 38.4352C17.9728 38.5591 18.6993 38.6427 19.4225 38.6838C19.7813 38.7041 20.0557 39.0115 20.0354 39.3703C20.0156 39.7166 19.7286 39.9843 19.3861 39.9843ZM21.6344 39.9831C21.2922 39.9831 21.0054 39.7159 20.9854 39.37C20.9646 39.0112 21.2386 38.7035 21.5974 38.6828C22.3204 38.6409 23.047 38.5566 23.7569 38.432C24.1107 38.3696 24.4483 38.6063 24.5104 38.9603C24.5726 39.3144 24.336 39.6516 23.982 39.7138C23.2227 39.8472 22.4457 39.9375 21.6726 39.9822C21.6599 39.9828 21.6472 39.9831 21.6344 39.9831ZM14.9616 39.2117C14.9 39.2117 14.8374 39.2029 14.7753 39.1844C14.0346 38.9634 13.2988 38.6962 12.5882 38.3898C12.2582 38.2475 12.106 37.8647 12.2484 37.5347C12.3906 37.2046 12.7736 37.0526 13.1035 37.1948C13.7674 37.481 14.4551 37.7308 15.1472 37.9373C15.4917 38.0401 15.6876 38.4025 15.5849 38.747C15.5007 39.0291 15.2419 39.2117 14.9616 39.2117ZM26.0585 39.2059C25.7784 39.2059 25.5198 39.0236 25.4353 38.7416C25.3322 38.3973 25.5277 38.0345 25.872 37.9315C26.5636 37.7245 27.2506 37.4741 27.914 37.1872C28.244 37.0445 28.627 37.1963 28.7696 37.5262C28.9123 37.856 28.7604 38.2391 28.4306 38.3817C27.7207 38.6887 26.9855 38.9566 26.2454 39.1783C26.1831 39.1969 26.1203 39.2059 26.0585 39.2059ZM2.31875 27.303C2.05305 27.303 1.80375 27.1392 1.70742 26.8752C1.44235 26.1494 1.21758 25.3998 1.03906 24.6475C0.956173 24.2978 1.17242 23.947 1.52211 23.864C1.87258 23.7811 2.22258 23.9974 2.30555 24.3471C2.47219 25.0501 2.68235 25.7505 2.93001 26.4287C3.05329 26.7663 2.87954 27.14 2.54188 27.2632C2.46829 27.2902 2.39289 27.303 2.31875 27.303ZM38.6879 27.2849C38.614 27.2849 38.5389 27.2722 38.4654 27.2455C38.1277 27.1226 37.9535 26.7492 38.0763 26.4115C38.3235 25.7322 38.5329 25.0312 38.699 24.3279C38.7816 23.978 39.1326 23.7616 39.4819 23.8441C39.8316 23.9266 40.0483 24.2772 39.9658 24.6269C39.7881 25.3796 39.564 26.1297 39.2994 26.8566C39.2034 27.1207 38.9537 27.2849 38.6879 27.2849ZM1.28117 22.9328C0.955548 22.9328 0.674297 22.6887 0.635704 22.3574C0.546407 21.5923 0.500782 20.8117 0.5 20.037C0.499688 19.6776 0.790704 19.386 1.15008 19.3856C1.15031 19.3856 1.15055 19.3856 1.15078 19.3856C1.50992 19.3856 1.80117 19.6765 1.80149 20.0357C1.80227 20.7606 1.84485 21.4909 1.92828 22.2065C1.97 22.5635 1.71438 22.8867 1.35735 22.9283C1.33188 22.9314 1.30633 22.9328 1.28117 22.9328ZM39.7213 22.9123C39.6963 22.9123 39.6711 22.9109 39.6456 22.9079C39.2887 22.8667 39.0327 22.5438 39.074 22.1868C39.1567 21.4711 39.1986 20.7407 39.1986 20.0158V19.9747C39.1986 19.6153 39.4899 19.324 39.8493 19.324C40.2087 19.324 40.5 19.6153 40.5 19.9747V20.0158C40.5 20.7904 40.4552 21.5711 40.3667 22.3362C40.3285 22.6679 40.0472 22.9123 39.7213 22.9123ZM1.2782 18.4415C1.25344 18.4415 1.22852 18.4401 1.20328 18.4372C0.846173 18.3964 0.589922 18.0738 0.63086 17.7167C0.718829 16.9481 0.85297 16.1773 1.02938 15.4258C1.11156 15.0758 1.46196 14.8586 1.8118 14.9411C2.16172 15.0232 2.37868 15.3735 2.29657 15.7233C2.13157 16.4257 2.00625 17.1462 1.92399 17.8647C1.88594 18.1965 1.60446 18.4415 1.2782 18.4415ZM39.7148 18.3802C39.3895 18.3802 39.1084 18.1365 39.0695 17.8054C38.9849 17.0872 38.8573 16.3672 38.6901 15.6652C38.6068 15.3156 38.8227 14.9646 39.1723 14.8813C39.5219 14.7979 39.8728 15.0139 39.9562 15.3635C40.1351 16.1146 40.2716 16.8849 40.362 17.6532C40.4041 18.0101 40.1488 18.3335 39.7919 18.3755C39.7659 18.3787 39.7402 18.3802 39.7148 18.3802ZM10.8024 3.91963C10.5781 3.91963 10.3598 3.80345 10.2391 3.59541C10.0586 3.28455 10.1643 2.88627 10.4753 2.70595C11.1438 2.3179 11.8419 1.96548 12.5502 1.65837C12.8799 1.5154 13.2632 1.66681 13.406 1.9965C13.5491 2.32619 13.3977 2.70947 13.0679 2.85244C12.406 3.13947 11.7535 3.46892 11.1286 3.83158C11.0257 3.89127 10.9133 3.91963 10.8024 3.91963ZM30.1468 3.89033C30.0365 3.89033 29.9248 3.86228 29.8224 3.8033C29.1957 3.44213 28.5416 3.11447 27.8783 2.82931C27.5482 2.68736 27.3955 2.30462 27.5374 1.97447C27.6793 1.64431 28.0619 1.49134 28.3922 1.63361C29.102 1.93869 29.8018 2.28923 30.4722 2.67564C30.7837 2.85509 30.8905 3.25298 30.7112 3.56439C30.5908 3.77338 30.3719 3.89033 30.1468 3.89033ZM14.9216 2.13376C14.6418 2.13376 14.3834 1.95189 14.2986 1.67017C14.1951 1.32595 14.3903 0.963058 14.7345 0.859621C15.4742 0.637277 16.2355 0.456339 16.9971 0.321729C17.3514 0.259307 17.6886 0.495401 17.7512 0.849386C17.8138 1.20329 17.5775 1.54087 17.2235 1.60345C16.5118 1.72915 15.8003 1.89829 15.1092 2.10611C15.0467 2.12486 14.9835 2.13376 14.9216 2.13376ZM26.0194 2.11595C25.958 2.11595 25.8958 2.10728 25.8338 2.08884C25.1417 1.88329 24.4298 1.7165 23.7178 1.59306C23.3636 1.53165 23.1263 1.19486 23.1878 0.840715C23.2492 0.486573 23.5863 0.249385 23.9401 0.310713C24.702 0.442745 25.4637 0.621339 26.2044 0.841261C26.549 0.943605 26.7453 1.30587 26.6429 1.65033C26.559 1.93306 26.3001 2.11595 26.0194 2.11595ZM19.3439 1.35126C19.002 1.35126 18.7153 1.08454 18.6949 0.738839C18.6737 0.380089 18.9475 0.0720411 19.3062 0.0509473C19.7009 0.0275879 20.1018 0.0158691 20.4979 0.0158691C20.4987 0.0158691 20.4993 0.0158691 20.5001 0.0158691C20.8763 0.0158691 21.2566 0.026416 21.6303 0.0473536C21.9891 0.0674317 22.2638 0.374464 22.2437 0.733371C22.2238 1.0922 21.9184 1.36736 21.5577 1.34681C21.2081 1.32736 20.8521 1.31736 20.5 1.31736C20.4993 1.31736 20.4987 1.31736 20.498 1.31736C20.1273 1.31736 19.7521 1.32837 19.3827 1.35017C19.3698 1.35095 19.3568 1.35126 19.3439 1.35126Z" fill="#FAD74F"/>
<path d="M5.97098 8.89866C4.37426 8.89866 3.0752 7.5996 3.0752 6.0028C3.0752 4.406 4.37426 3.10693 5.97098 3.10693C7.56778 3.10693 8.86685 4.406 8.86685 6.0028C8.86685 7.5996 7.56778 8.89866 5.97098 8.89866Z" fill="#FAD393"/>
<path d="M34.9153 8.89866C33.3186 8.89866 32.0195 7.5996 32.0195 6.0028C32.0195 4.406 33.3186 3.10693 34.9153 3.10693C36.5121 3.10693 37.8112 4.406 37.8112 6.0028C37.8112 7.5996 36.5121 8.89866 34.9153 8.89866Z" fill="#FAD393"/>
<path d="M5.97098 32.768C4.37426 32.768 3.0752 31.4689 3.0752 29.8722C3.0752 28.2755 4.37426 26.9763 5.97098 26.9763C7.56778 26.9763 8.86685 28.2754 8.86685 29.8722C8.86685 31.469 7.56778 32.768 5.97098 32.768Z" fill="#FAD393"/>
<path d="M34.9153 32.768C33.3186 32.768 32.0195 31.4689 32.0195 29.8722C32.0195 28.2755 33.3186 26.9763 34.9153 26.9763C36.5121 26.9763 37.8112 28.2754 37.8112 29.8722C37.8112 31.469 36.5121 32.768 34.9153 32.768Z" fill="#FAD393"/>
<path d="M5.81012 6.00288C5.81012 4.90037 6.4295 3.94006 7.33848 3.451C6.93098 3.23178 6.46528 3.10693 5.97098 3.10693C4.37426 3.10693 3.0752 4.406 3.0752 6.0028C3.0752 7.5996 4.37426 8.89866 5.97098 8.89866C6.46528 8.89866 6.93091 8.7739 7.33848 8.5546C6.4295 8.06562 5.81012 7.1053 5.81012 6.00288Z" fill="#EDB769"/>
<path d="M34.7545 6.00288C34.7545 4.90037 35.3738 3.94006 36.2828 3.451C35.8752 3.23178 35.4096 3.10693 34.9153 3.10693C33.3186 3.10693 32.0195 4.406 32.0195 6.0028C32.0195 7.5996 33.3186 8.89866 34.9153 8.89866C35.4096 8.89866 35.8752 8.7739 36.2828 8.5546C35.3739 8.06562 34.7545 7.1053 34.7545 6.00288Z" fill="#EDB769"/>
<path d="M5.81012 29.8723C5.81012 28.7698 6.4295 27.8094 7.33848 27.3204C6.93098 27.1012 6.46528 26.9763 5.97098 26.9763C4.37426 26.9763 3.0752 28.2754 3.0752 29.8722C3.0752 31.469 4.37426 32.768 5.97098 32.768C6.46528 32.768 6.93091 32.6433 7.33848 32.424C6.4295 31.9351 5.81012 30.9748 5.81012 29.8723Z" fill="#EDB769"/>
<path d="M34.7545 29.8723C34.7545 28.7698 35.3738 27.8094 36.2828 27.3204C35.8752 27.1012 35.4096 26.9763 34.9153 26.9763C33.3186 26.9763 32.0195 28.2754 32.0195 29.8722C32.0195 31.469 33.3186 32.768 34.9153 32.768C35.4096 32.768 35.8752 32.6433 36.2828 32.424C35.3739 31.9351 34.7545 30.9748 34.7545 29.8723Z" fill="#EDB769"/>
</g>
<defs>
<clipPath id="clip0_95_158">
<rect width="40" height="40" fill="white" transform="translate(0.5)"/>
</clipPath>
</defs>
</svg>
