<svg width="21" height="20" viewBox="0 0 21 20" fill="none" xmlns="http://www.w3.org/2000/svg">
<path d="M15.5001 9.16422C15.1733 8.4973 14.2902 7.51791 12.4754 7.55959C12.4754 7.55959 11.036 7.49707 9.40895 7.49707C7.78191 7.49707 7.02019 7.53517 5.71678 7.55959C4.88239 7.53874 3.29703 7.7263 2.56694 9.45597C2.08716 10.9146 2.06629 13.978 2.35834 15.5201C2.42092 16.312 2.83811 17.4165 4.13143 18C4.9241 18.4167 6.19656 18.25 7.15612 18.3334M5.48733 6.83022C5.4456 4.85051 5.36216 3.28759 7.65675 1.99557C8.42857 1.68299 9.57587 1.41208 10.9944 2.07893C12.4754 2.975 12.6599 3.92332 12.7883 4.16283C13.1429 5.10059 12.9552 6.43428 12.9969 6.97609" stroke="white" stroke-width="1.5" stroke-linecap="round"/>
<path d="M13.4167 16.4459C13.4167 17.4826 12.576 18.3046 11.5461 18.3046C10.5162 18.3046 9.66675 17.4826 9.66675 16.4459C9.66675 15.4092 10.5162 14.5762 11.5461 14.5762C12.576 14.5762 13.4167 15.4092 13.4167 16.4459Z" stroke="white" stroke-width="1.5"/>
<path d="M13.1875 14.8258L14.8462 13.2069M14.8462 13.2069L16.0219 12.0755C16.2917 11.8458 16.8333 11.3077 17.4775 11.9241L18.8333 13.2069M14.8462 13.2069L16.1875 14.4947" stroke="white" stroke-width="1.5" stroke-linecap="round"/>
</svg>
