<svg width="20" height="20" viewBox="0 0 20 20" fill="none" xmlns="http://www.w3.org/2000/svg">
<path d="M2.05365 7.78642C1.84654 7.78642 1.65754 7.61853 1.66706 7.39908C1.72282 6.11402 1.87905 5.27744 2.31678 4.61566C2.56861 4.23493 2.88142 3.90378 3.24107 3.63719C4.21317 2.91663 5.58454 2.91663 8.32726 2.91663H11.6728C14.4156 2.91663 15.7869 2.91663 16.7591 3.63719C17.1187 3.90378 17.4315 4.23493 17.6833 4.61566C18.121 5.27737 18.2772 6.11383 18.333 7.39865C18.3426 7.61836 18.1533 7.78642 17.946 7.78642C16.7912 7.78642 15.855 8.77746 15.855 9.99996C15.855 11.2225 16.7912 12.2135 17.946 12.2135C18.1533 12.2135 18.3426 12.3815 18.333 12.6013C18.2772 13.8861 18.121 14.7225 17.6833 15.3843C17.4315 15.765 17.1187 16.0961 16.7591 16.3627C15.7869 17.0833 14.4156 17.0833 11.6728 17.0833H8.32726C5.58454 17.0833 4.21317 17.0833 3.24107 16.3627C2.88142 16.0961 2.56861 15.765 2.31678 15.3843C1.87905 14.7225 1.72282 13.8859 1.66706 12.6009C1.65754 12.3814 1.84654 12.2135 2.05365 12.2135C3.20848 12.2135 4.14465 11.2225 4.14465 9.99996C4.14465 8.77746 3.20848 7.78642 2.05365 7.78642Z" stroke="white" stroke-width="1.5" stroke-linejoin="round"/>
<path d="M7.91672 12.0833L12.0834 7.91663" stroke="white" stroke-width="1.5" stroke-linecap="round" stroke-linejoin="round"/>
<path d="M7.91672 7.91663H7.92608M12.074 12.0833H12.0834" stroke="white" stroke-width="1.5" stroke-linecap="round" stroke-linejoin="round"/>
</svg>
