<svg width="33" height="38" viewBox="0 0 33 38" fill="none" xmlns="http://www.w3.org/2000/svg">
<g id="Group 1000002687">
<path id="Vector" d="M24.4515 22.6201H17.0088V37.3444H24.4515V22.6201Z" fill="url(#paint0_linear_1_181)"/>
<path id="Vector_2" d="M8.12493 26.093H0.650146V37.3444H8.12493V26.093Z" fill="url(#paint1_linear_1_181)"/>
<path id="Vector_3" d="M16.3171 19.5845H8.84229V37.3445H16.3171V19.5845Z" fill="url(#paint2_linear_1_181)"/>
<path id="Vector_4" d="M32.6501 13.9336H25.1753V37.3445H32.6501V13.9336Z" fill="url(#paint3_linear_1_181)"/>
<path id="Vector_5" d="M29.659 1.345L28.2563 6.93705C28.2079 7.12053 28.1082 7.273 27.9774 7.36356C27.8466 7.45412 27.6944 7.47601 27.5518 7.42478C27.4792 7.39428 27.412 7.34521 27.3539 7.2804C27.2959 7.21559 27.2483 7.13632 27.2137 7.04718C27.1792 6.95803 27.1584 6.86079 27.1527 6.76106C27.1469 6.66132 27.1563 6.56109 27.1803 6.46614L27.9809 3.27069L19.904 11.1248C19.8058 11.2208 19.687 11.2738 19.5646 11.2761H19.5133C19.4059 11.2957 19.2965 11.2723 19.1995 11.2089L12.9096 7.19773L2.14263 17.7259C2.04284 17.8242 1.92148 17.8773 1.79675 17.8773C1.70708 17.8786 1.61846 17.8519 1.53825 17.7992C1.45805 17.7465 1.38856 17.6695 1.33558 17.5745C1.24161 17.4111 1.20021 17.2058 1.22029 17.0027C1.24511 16.8043 1.32782 16.6263 1.45087 16.5066L12.5766 5.64205L12.6791 5.58319C12.7173 5.57617 12.7561 5.57617 12.7943 5.58319H12.8904C12.9351 5.57552 12.9803 5.57552 13.0249 5.58319H13.0954L19.4557 9.62796L27.2699 2.02614L24.7079 2.28682C24.5522 2.30101 24.3984 2.23529 24.2789 2.10352C24.1594 1.97175 24.0836 1.78422 24.0674 1.58046C24.0585 1.47902 24.0654 1.37629 24.0876 1.27844C24.1098 1.18059 24.1468 1.08965 24.1965 1.01108C24.2462 0.932523 24.3074 0.867967 24.3766 0.821303C24.4458 0.774638 24.5214 0.746829 24.599 0.739549L29.0826 0.293868C29.1772 0.291394 29.2712 0.316508 29.3575 0.3674C29.4439 0.418292 29.5206 0.493696 29.5822 0.588186C29.6449 0.694069 29.6851 0.819951 29.6986 0.952937C29.7121 1.08592 29.6985 1.22123 29.659 1.345Z" fill="url(#paint4_linear_1_181)"/>
</g>
<defs>
<linearGradient id="paint0_linear_1_181" x1="20.7302" y1="37.3444" x2="20.7302" y2="22.6201" gradientUnits="userSpaceOnUse">
<stop stop-color="#F58639"/>
<stop offset="1" stop-color="#FBC49C"/>
</linearGradient>
<linearGradient id="paint1_linear_1_181" x1="4.38433" y1="0.344384" x2="4.38433" y2="26.093" gradientUnits="userSpaceOnUse">
<stop stop-color="#F58639"/>
<stop offset="1" stop-color="#FBC49C"/>
</linearGradient>
<linearGradient id="paint2_linear_1_181" x1="12.5829" y1="0.344473" x2="12.5829" y2="19.5845" gradientUnits="userSpaceOnUse">
<stop stop-color="#F58639"/>
<stop offset="1" stop-color="#FBC49C"/>
</linearGradient>
<linearGradient id="paint3_linear_1_181" x1="28.9159" y1="0.344502" x2="28.9159" y2="13.9336" gradientUnits="userSpaceOnUse">
<stop stop-color="#F58639"/>
<stop offset="1" stop-color="#FBC49C"/>
</linearGradient>
<linearGradient id="paint4_linear_1_181" x1="15.4525" y1="17.8773" x2="15.4525" y2="0.344323" gradientUnits="userSpaceOnUse">
<stop stop-color="#F58639"/>
<stop offset="1" stop-color="#FBC49C"/>
</linearGradient>
</defs>
</svg>
