<svg width="37" height="37" viewBox="0 0 37 37" fill="none" xmlns="http://www.w3.org/2000/svg">
<path d="M19.6665 10.6062C19.6665 13.9199 16.9802 16.6062 13.6665 16.6062C10.3528 16.6062 7.6665 13.9199 7.6665 10.6062C7.6665 7.29249 10.3528 4.6062 13.6665 4.6062C16.9802 4.6062 19.6665 7.29249 19.6665 10.6062Z" stroke="url(#paint0_linear_1_1534)" stroke-width="1.5"/>
<path d="M22.6665 16.6062C25.9802 16.6062 28.6665 13.9199 28.6665 10.6062C28.6665 7.29249 25.9802 4.6062 22.6665 4.6062" stroke="url(#paint1_linear_1_1534)" stroke-width="1.5" stroke-linecap="round" stroke-linejoin="round"/>
<path d="M16.6665 21.1062H10.6665C6.52437 21.1062 3.1665 24.4641 3.1665 28.6062C3.1665 30.2631 4.50965 31.6062 6.1665 31.6062H21.1665C22.8234 31.6062 24.1665 30.2631 24.1665 28.6062C24.1665 24.4641 20.8086 21.1062 16.6665 21.1062Z" stroke="url(#paint2_linear_1_1534)" stroke-width="1.5" stroke-linejoin="round"/>
<path d="M25.6665 21.1062C29.8086 21.1062 33.1665 24.4641 33.1665 28.6062C33.1665 30.2631 31.8234 31.6062 30.1665 31.6062H27.9165" stroke="url(#paint3_linear_1_1534)" stroke-width="1.5" stroke-linecap="round" stroke-linejoin="round"/>
<defs>
<linearGradient id="paint0_linear_1_1534" x1="13.6665" y1="4.6062" x2="13.6665" y2="16.6062" gradientUnits="userSpaceOnUse">
<stop stop-color="#B7FFDD"/>
<stop offset="1" stop-color="#FE7C03"/>
</linearGradient>
<linearGradient id="paint1_linear_1_1534" x1="25.6665" y1="4.6062" x2="25.6665" y2="16.6062" gradientUnits="userSpaceOnUse">
<stop stop-color="#B7FFDD"/>
<stop offset="1" stop-color="#FE7C03"/>
</linearGradient>
<linearGradient id="paint2_linear_1_1534" x1="13.6665" y1="21.1062" x2="13.6665" y2="31.6062" gradientUnits="userSpaceOnUse">
<stop stop-color="#B7FFDD"/>
<stop offset="1" stop-color="#FE7C03"/>
</linearGradient>
<linearGradient id="paint3_linear_1_1534" x1="29.4165" y1="21.1062" x2="29.4165" y2="31.6062" gradientUnits="userSpaceOnUse">
<stop stop-color="#B7FFDD"/>
<stop offset="1" stop-color="#FE7C03"/>
</linearGradient>
</defs>
</svg>
